<svg width="61" height="56" viewBox="0 0 61 56" fill="none" xmlns="http://www.w3.org/2000/svg">
<path d="M17.6365 55.591C13.0726 55.5792 9.16587 54.7742 5.91637 53.1759C2.71759 51.5778 1.2279 46.8419 1.2279 42.9423L5.12751 44.8921C8.05222 45.867 8.56787 46.009 10.9769 46.8419C13.386 47.6749 15.2828 47.3531 17.9198 47.3599C20.9624 47.3677 23.2933 46.6813 24.9125 45.3006C26.5317 43.92 27.3379 41.9218 27.3313 39.3061C27.3258 37.152 26.7132 35.5348 25.4934 34.4546C24.2735 33.3231 22.2177 32.5229 19.326 32.0538L13.6949 31.1162C8.77376 30.2316 5.27019 28.4275 3.18416 25.7039C1.09799 22.9289 0.0501387 19.6694 0.0406048 15.9253C0.0275447 10.7964 1.66563 6.87705 4.95487 4.1672C8.24397 1.40607 12.8043 0.0329911 18.636 0.0479728C22.7942 0.0586554 26.371 0.734596 29.3663 2.0758C32.4123 3.41712 34.851 5.24413 36.6824 7.55682L30.8415 13.8503C29.4173 12.1541 27.7151 10.8163 25.7349 9.83669C23.7546 8.80583 21.4207 8.28695 18.733 8.28004C12.9521 8.26519 10.0678 10.6683 10.08 15.4895C10.0853 17.5411 10.6978 19.1069 11.9175 20.1871C13.1373 21.2673 15.2185 22.0676 18.161 22.5881L23.7163 23.6025C28.3331 24.4863 31.7604 26.2132 33.9982 28.7834C36.2359 31.3536 37.3599 34.6389 37.3701 38.6395C37.3765 41.1526 36.9514 43.4595 36.0946 45.5602C35.2378 47.6095 33.9746 49.4014 32.3051 50.9357C30.6355 52.4188 28.5593 53.5675 26.0766 54.3817C23.6446 55.1961 20.8312 55.5992 17.6365 55.591Z" fill="white"/>
<path d="M28.4159 52.218L28.2918 3.47364L37.9508 1.60671L42.7338 0.912307L47.2068 1.47535C52.0424 3.1156 54.7055 4.89162 57.1819 7.59822C59.6584 10.3048 60.9025 13.9859 60.9143 18.6416C60.9262 23.2972 59.7008 26.972 57.2381 29.6659C54.7755 32.3598 51.2118 33.7008 46.5471 33.6888L36.582 33.6888L33.462 48.2635L28.4159 52.218ZM37.336 26.1929L44.676 26.2118C47.0998 26.218 48.8363 25.7336 49.8857 24.7586C50.9349 23.7371 51.4567 22.1322 51.4512 19.9441L51.4444 17.2904C51.4388 15.1023 50.9089 13.518 49.8546 12.5376C48.8001 11.5107 47.061 10.9941 44.6372 10.9879L37.2972 10.969L37.336 26.1929Z" fill="white"/>
</svg>
