<svg width="17" height="16" viewBox="0 0 17 16" fill="#000000" xmlns="http://www.w3.org/2000/svg">
<path d="M1.00268 7C0.450395 6.99852 0.0014822 7.44504 3.57628e-06 7.99732C-0.00147504 8.54961 0.44504 8.99852 0.997323 9L1.00268 7ZM16.7052 8.74916C17.0967 8.35968 17.0984 7.72652 16.7089 7.33495L10.362 0.953972C9.97257 0.562403 9.3394 0.560708 8.94784 0.950185C8.55627 1.33966 8.55457 1.97283 8.94405 2.36439L14.5857 8.03637L8.91376 13.6781C8.52219 14.0675 8.5205 14.7007 8.90997 15.0923C9.29945 15.4838 9.93261 15.4855 10.3242 15.0961L16.7052 8.74916ZM0.997323 9L15.9973 9.04016L16.0026 7.04016L1.00268 7L0.997323 9Z" fill="white"/>
</svg>
