<svg width="211" height="22" viewBox="0 0 211 22" fill="none" xmlns="http://www.w3.org/2000/svg">
<path d="M5.308 15.097C4.874 14.985 4.496 14.887 4.174 14.803C3.852 14.705 3.495 14.502 3.103 14.194C2.627 13.914 2.242 13.69 1.948 13.522C1.668 13.34 1.395 13.06 1.129 12.682L0.436 11.842L0.205 10.729C0.317 10.701 0.422 10.666 0.52 10.624C0.632 10.568 0.695 10.533 0.709 10.519C0.877 10.435 1.045 10.337 1.213 10.225C1.395 10.099 1.633 9.938 1.927 9.742C2.221 9.546 2.634 9.301 3.166 9.007C3.824 8.671 4.384 8.363 4.846 8.083C5.322 7.803 5.63 7.593 5.77 7.453C5.854 7.355 5.952 7.292 6.064 7.264C6.176 7.222 6.26 7.201 6.316 7.201C6.4 7.173 6.533 7.236 6.715 7.39C6.897 7.53 7.016 7.621 7.072 7.663C7.226 7.761 7.338 7.831 7.408 7.873C7.478 7.915 7.52 7.992 7.534 8.104C7.534 8.104 7.513 8.167 7.471 8.293C7.443 8.419 7.38 8.524 7.282 8.608C7.1 8.762 6.848 8.923 6.526 9.091C6.218 9.259 5.833 9.462 5.371 9.7C4.923 9.924 4.391 10.225 3.775 10.603C3.397 10.827 3.11 10.988 2.914 11.086C2.718 11.17 2.592 11.247 2.536 11.317C2.48 11.387 2.466 11.513 2.494 11.695C2.732 11.975 3.117 12.262 3.649 12.556C4.195 12.836 4.993 13.137 6.043 13.459C6.561 13.613 6.946 13.767 7.198 13.921C7.464 14.075 7.632 14.229 7.702 14.383C7.772 14.537 7.793 14.705 7.765 14.887C7.695 15.013 7.52 15.118 7.24 15.202C6.96 15.272 6.638 15.307 6.274 15.307C5.924 15.293 5.602 15.223 5.308 15.097ZM17.1581 17.365C16.9061 17.295 16.7031 17.232 16.5491 17.176C16.3951 17.134 16.3181 17.113 16.3181 17.113C16.3461 17.043 16.3321 16.98 16.2761 16.924C16.2341 16.868 16.1361 16.833 15.9821 16.819C15.7721 16.679 15.5551 16.483 15.3311 16.231C15.1071 15.979 14.9111 15.72 14.7431 15.454C14.5751 15.188 14.4631 14.992 14.4071 14.866C14.3091 14.656 14.3161 14.53 14.4281 14.488C14.5401 14.432 14.6731 14.369 14.8271 14.299C14.9811 14.187 15.1421 14.103 15.3101 14.047C15.4921 13.991 15.6391 14.082 15.7511 14.32C15.9331 14.642 16.2131 14.915 16.5911 15.139C16.9831 15.363 17.4241 15.496 17.9141 15.538C18.4181 15.58 18.9221 15.496 19.4261 15.286C19.7621 15.132 19.9441 14.922 19.9721 14.656C20.0001 14.376 19.8951 14.054 19.6571 13.69C19.6151 13.578 19.5521 13.487 19.4681 13.417C19.3981 13.347 19.2861 13.256 19.1321 13.144C18.9921 13.032 18.7891 12.85 18.5231 12.598C18.3131 12.5 18.1171 12.409 17.9351 12.325C17.7671 12.241 17.5851 12.15 17.3891 12.052C17.1651 11.94 16.9131 11.786 16.6331 11.59C16.3531 11.38 16.0941 11.156 15.8561 10.918C15.6181 10.666 15.4361 10.428 15.3101 10.204C15.0861 9.994 14.9461 9.707 14.8901 9.343C14.8341 8.965 14.8411 8.566 14.9111 8.146C14.9951 7.726 15.1281 7.348 15.3101 7.012C15.3941 6.816 15.5481 6.564 15.7721 6.256C15.9961 5.934 16.2481 5.605 16.5281 5.269C16.8081 4.933 17.0741 4.632 17.3261 4.366C17.5921 4.086 17.8021 3.897 17.9561 3.799C18.0681 3.687 18.1871 3.575 18.3131 3.463C18.4391 3.337 18.5021 3.274 18.5021 3.274C18.5161 3.204 18.5371 3.169 18.5651 3.169C18.6071 3.169 18.6281 3.169 18.6281 3.169C18.6981 3.127 18.8521 3.057 19.0901 2.959C19.3281 2.861 19.5871 2.679 19.8671 2.413C20.8051 1.965 21.6031 1.664 22.2611 1.51C22.9191 1.342 23.4371 1.258 23.8151 1.258C24.1651 1.272 24.5081 1.37 24.8441 1.552C25.1801 1.72 25.4671 1.937 25.7051 2.203C25.9571 2.469 26.1041 2.77 26.1461 3.106C26.2441 3.442 26.1951 3.848 25.9991 4.324C25.8171 4.786 25.5581 5.227 25.2221 5.647C24.9001 6.053 24.5641 6.354 24.2141 6.55C23.8221 6.718 23.4861 6.739 23.2061 6.613C22.9401 6.487 22.8141 6.291 22.8281 6.025C22.8281 5.913 22.8631 5.78 22.9331 5.626C23.0171 5.472 23.2341 5.199 23.5841 4.807C24.0321 4.149 24.2701 3.68 24.2981 3.4C24.3261 3.12 24.2001 2.959 23.9201 2.917C23.8361 2.889 23.6751 2.896 23.4371 2.938C23.1991 2.98 22.9401 3.036 22.6601 3.106C22.3941 3.162 22.1561 3.225 21.9461 3.295C21.7501 3.365 21.6521 3.414 21.6521 3.442C21.6521 3.442 21.6521 3.463 21.6521 3.505C21.6521 3.547 21.6241 3.561 21.5681 3.547C21.5401 3.547 21.4421 3.596 21.2741 3.694C21.1201 3.778 20.9311 3.89 20.7071 4.03C20.4831 4.17 20.2591 4.317 20.0351 4.471C19.8251 4.611 19.6431 4.737 19.4891 4.849C19.3351 4.961 19.2511 5.031 19.2371 5.059C19.2091 5.213 19.0481 5.353 18.7541 5.479C18.4741 5.647 18.2291 5.885 18.0191 6.193C17.8091 6.501 17.5641 6.893 17.2841 7.369C17.0461 7.691 16.8781 8.041 16.7801 8.419C16.6821 8.783 16.6821 9.077 16.7801 9.301C16.8501 9.525 17.0391 9.749 17.3471 9.973C17.6691 10.183 18.1031 10.449 18.6491 10.771C19.1251 11.037 19.5731 11.317 19.9931 11.611C20.4131 11.905 20.7701 12.192 21.0641 12.472C21.3581 12.738 21.5471 12.962 21.6311 13.144C21.7991 13.382 21.8971 13.655 21.9251 13.963C21.9671 14.271 21.9671 14.572 21.9251 14.866C21.8971 15.146 21.8551 15.377 21.7991 15.559C21.7011 15.783 21.5471 16.021 21.3371 16.273C21.1411 16.525 20.9591 16.644 20.7911 16.63C20.6371 16.672 20.5181 16.721 20.4341 16.777C20.3641 16.833 20.2801 16.882 20.1821 16.924C20.0841 16.98 19.8531 17.043 19.4891 17.113C19.1251 17.197 18.7261 17.26 18.2921 17.302C17.8581 17.358 17.4801 17.379 17.1581 17.365ZM29.4987 15.202C29.4007 15.216 29.2887 15.181 29.1627 15.097C29.0507 14.999 28.9457 14.915 28.8477 14.845C28.7077 14.677 28.6097 14.53 28.5537 14.404C28.4977 14.278 28.4697 14.138 28.4697 13.984C28.4697 13.83 28.4837 13.648 28.5117 13.438C28.5817 13.214 28.6657 12.913 28.7637 12.535C28.8617 12.157 28.9807 11.751 29.1207 11.317C29.1487 11.149 29.1977 10.953 29.2677 10.729C29.3517 10.491 29.4357 10.267 29.5197 10.057C29.6037 9.833 29.6667 9.665 29.7087 9.553C29.8067 9.203 29.9047 8.867 30.0027 8.545C30.1147 8.223 30.2477 7.852 30.4017 7.432C30.5557 7.012 30.7447 6.48 30.9687 5.836C31.2767 4.996 31.5077 4.366 31.6617 3.946C31.8157 3.526 31.9277 3.225 31.9977 3.043C32.0677 2.861 32.1167 2.714 32.1447 2.602C32.1447 2.49 32.2217 2.385 32.3757 2.287C32.5437 2.175 32.6907 2.119 32.8167 2.119C33.0127 2.133 33.2017 2.252 33.3837 2.476C33.5657 2.686 33.6917 2.945 33.7617 3.253C33.8317 3.547 33.7827 3.834 33.6147 4.114C33.3907 4.618 33.1667 5.185 32.9427 5.815C32.7327 6.431 32.5227 7.047 32.3127 7.663C32.1027 8.279 31.8927 8.846 31.6827 9.364C31.6687 9.434 31.6197 9.553 31.5357 9.721C31.4657 9.889 31.4027 10.029 31.3467 10.141C31.2907 10.253 31.2347 10.358 31.1787 10.456C31.1367 10.554 31.1157 10.603 31.1157 10.603C31.1017 10.687 31.0737 10.806 31.0317 10.96C30.9897 11.114 30.9477 11.247 30.9057 11.359C30.8917 11.429 30.8707 11.52 30.8427 11.632C30.8147 11.744 30.7937 11.856 30.7797 11.968C30.8497 11.884 30.9477 11.786 31.0737 11.674C31.1997 11.548 31.3607 11.394 31.5567 11.212C31.7807 11.016 31.9767 10.848 32.1447 10.708C32.3127 10.568 32.4807 10.442 32.6487 10.33C32.8027 10.218 32.9427 10.113 33.0687 10.015C33.2087 9.917 33.2787 9.868 33.2787 9.868C33.3067 9.826 33.3347 9.777 33.3627 9.721C33.4047 9.665 33.4467 9.63 33.4887 9.616C33.5167 9.588 33.5657 9.553 33.6357 9.511C33.7057 9.455 33.7757 9.399 33.8457 9.343C33.9717 9.259 34.1047 9.189 34.2447 9.133C34.3847 9.077 34.5317 9.035 34.6857 9.007C34.8397 8.979 34.9867 8.965 35.1267 8.965C35.2947 8.965 35.4697 9.035 35.6517 9.175C35.8337 9.301 36.0017 9.483 36.1557 9.721C36.2957 9.903 36.3797 10.12 36.4077 10.372C36.4497 10.61 36.4567 10.932 36.4287 11.338C36.4287 11.45 36.3937 11.66 36.3237 11.968C36.2677 12.276 36.2257 12.507 36.1977 12.661L36.0087 13.375H36.1767C36.3307 13.319 36.4777 13.312 36.6177 13.354C36.7717 13.396 36.8487 13.417 36.8487 13.417C36.9187 13.459 36.9817 13.508 37.0377 13.564C37.1077 13.62 37.1707 13.662 37.2267 13.69C37.3107 13.802 37.2967 13.963 37.1847 14.173C37.0727 14.383 36.9467 14.53 36.8067 14.614C36.4707 14.838 36.1697 14.978 35.9037 15.034C35.6517 15.09 35.3857 15.041 35.1057 14.887C34.8397 14.705 34.6577 14.488 34.5597 14.236C34.4757 13.984 34.4407 13.641 34.4547 13.207C34.5107 12.591 34.5457 12.15 34.5597 11.884C34.5737 11.604 34.5037 11.464 34.3497 11.464C34.1817 11.464 33.9507 11.548 33.6567 11.716C33.3767 11.87 33.0617 12.087 32.7117 12.367C32.3617 12.633 32.0117 12.934 31.6617 13.27C31.3257 13.592 31.0247 13.921 30.7587 14.257C30.5907 14.467 30.4087 14.677 30.2127 14.887C30.0167 15.083 29.7787 15.188 29.4987 15.202ZM44.4855 15.559C44.4435 15.573 44.3525 15.566 44.2125 15.538C44.0865 15.51 43.9535 15.475 43.8135 15.433C43.6875 15.391 43.6105 15.356 43.5825 15.328C43.5265 15.272 43.4495 15.174 43.3515 15.034C43.2535 14.88 43.1975 14.677 43.1835 14.425C43.1835 14.173 43.3025 13.872 43.5405 13.522C43.6105 13.382 43.6945 13.172 43.7925 12.892C43.8905 12.612 43.9885 12.318 44.0865 12.01C44.1985 11.688 44.2965 11.401 44.3805 11.149C44.4785 10.897 44.5485 10.722 44.5905 10.624C44.6185 10.386 44.6045 10.218 44.5485 10.12C44.5065 10.008 44.3875 9.945 44.1915 9.931C44.0515 9.931 43.9395 9.882 43.8555 9.784C43.7855 9.686 43.7505 9.511 43.7505 9.259C43.7785 9.063 43.8275 8.895 43.8975 8.755C43.9815 8.601 44.0935 8.475 44.2335 8.377C44.3735 8.307 44.5485 8.258 44.7585 8.23C44.9825 8.202 45.1995 8.195 45.4095 8.209C45.6195 8.223 45.7665 8.272 45.8505 8.356C45.9485 8.412 46.0255 8.538 46.0815 8.734C46.1515 8.916 46.2075 9.105 46.2495 9.301C46.2915 9.497 46.3195 9.644 46.3335 9.742C46.4735 9.63 46.6275 9.476 46.7955 9.28C46.9775 9.07 47.1595 8.874 47.3415 8.692C47.5655 8.538 47.8315 8.384 48.1395 8.23C48.4475 8.062 48.6715 7.978 48.8115 7.978C48.9655 7.978 49.1545 8.055 49.3785 8.209C49.6025 8.349 49.7425 8.475 49.7985 8.587C49.9385 8.825 50.0365 9.077 50.0925 9.343C50.1625 9.595 50.1205 9.819 49.9665 10.015C49.8265 10.197 49.6305 10.379 49.3785 10.561C49.1265 10.729 48.8115 10.778 48.4335 10.708C48.3495 10.68 48.2585 10.575 48.1605 10.393C48.0765 10.211 48.0275 10.078 48.0135 9.994C48.0135 9.952 47.9505 9.994 47.8245 10.12C47.7125 10.232 47.5725 10.372 47.4045 10.54C47.2505 10.708 47.1035 10.862 46.9635 11.002C46.7255 11.296 46.4735 11.695 46.2075 12.199C45.9415 12.703 45.6265 13.312 45.2625 14.026C45.0945 14.376 44.9545 14.712 44.8425 15.034C44.7305 15.342 44.6115 15.517 44.4855 15.559ZM58.6259 15.58C58.2059 15.818 57.7579 15.958 57.2819 16C56.8199 16.028 56.3859 15.965 55.9799 15.811C55.5739 15.643 55.2449 15.398 54.9929 15.076C54.8529 14.894 54.7199 14.607 54.5939 14.215C54.4679 13.809 54.4469 13.263 54.5309 12.577C54.6149 11.933 54.8109 11.282 55.1189 10.624C55.4409 9.966 55.8329 9.385 56.2949 8.881C56.7569 8.377 57.2609 8.034 57.8069 7.852C58.0029 7.782 58.1989 7.733 58.3949 7.705C58.6049 7.663 58.8779 7.656 59.2139 7.684C59.5359 7.726 59.8229 7.81 60.0749 7.936C60.3269 8.048 60.5089 8.174 60.6209 8.314C60.8449 8.538 60.9919 8.755 61.0619 8.965C61.1319 9.175 61.1599 9.378 61.1459 9.574C61.0759 10.022 60.8729 10.505 60.5369 11.023C60.2149 11.541 59.7599 11.926 59.1719 12.178C58.9339 12.276 58.6539 12.339 58.3319 12.367C58.0099 12.395 57.5689 12.353 57.0089 12.241C56.6729 12.171 56.4489 12.206 56.3369 12.346C56.2389 12.486 56.1969 12.759 56.2109 13.165C56.2389 13.417 56.2949 13.641 56.3789 13.837C56.4769 14.019 56.6519 14.145 56.9039 14.215C57.2259 14.271 57.4569 14.278 57.5969 14.236C57.7369 14.18 57.9119 14.103 58.1219 14.005C58.2339 13.935 58.3389 13.858 58.4369 13.774C58.5489 13.69 58.6539 13.606 58.7519 13.522C58.8639 13.438 58.9549 13.375 59.0249 13.333C59.0949 13.277 59.1649 13.242 59.2349 13.228C59.3049 13.214 59.3749 13.207 59.4449 13.207C59.5989 13.221 59.7459 13.305 59.8859 13.459C60.0259 13.613 60.1169 13.76 60.1589 13.9C60.1589 14.012 60.0889 14.173 59.9489 14.383C59.8089 14.579 59.6199 14.789 59.3819 15.013C59.1579 15.223 58.9059 15.412 58.6259 15.58ZM58.3529 10.897C58.4509 10.855 58.5909 10.757 58.7729 10.603C58.9689 10.449 59.1439 10.288 59.2979 10.12C59.4519 9.938 59.5289 9.798 59.5289 9.7C59.5289 9.546 59.4239 9.413 59.2139 9.301C59.0179 9.189 58.7589 9.168 58.4369 9.238C58.3249 9.266 58.1919 9.343 58.0379 9.469C57.8839 9.595 57.7299 9.742 57.5759 9.91C57.4219 10.064 57.2889 10.218 57.1769 10.372C57.0649 10.512 56.9879 10.624 56.9459 10.708C57.0019 10.778 57.1139 10.834 57.2819 10.876C57.4499 10.918 57.6319 10.939 57.8279 10.939C58.0379 10.939 58.2129 10.925 58.3529 10.897ZM66.9625 20.998C66.9065 21.012 66.8225 20.991 66.7105 20.935C66.6125 20.879 66.5285 20.781 66.4585 20.641C66.3885 20.501 66.3675 20.319 66.3955 20.095C66.3395 19.899 66.3465 19.654 66.4165 19.36C66.5005 19.08 66.6755 18.66 66.9415 18.1C67.0815 17.876 67.2075 17.61 67.3195 17.302C67.4455 16.994 67.5855 16.686 67.7395 16.378C67.8095 16.252 67.9285 16.035 68.0965 15.727C68.2785 15.419 68.4745 15.055 68.6845 14.635C68.9085 14.201 69.1115 13.753 69.2935 13.291C68.9295 13.669 68.6145 14.026 68.3485 14.362C68.0965 14.684 67.8655 14.943 67.6555 15.139C67.4595 15.321 67.2495 15.405 67.0255 15.391C66.8435 15.349 66.6265 15.23 66.3745 15.034C66.1225 14.838 65.9615 14.621 65.8915 14.383C65.8355 14.075 65.8145 13.683 65.8285 13.207C65.8565 12.731 65.9475 12.01 66.1015 11.044C66.2135 10.568 66.2625 10.204 66.2485 9.952C66.2485 9.686 66.2135 9.49 66.1435 9.364C66.0735 9.238 65.9825 9.126 65.8705 9.028C65.6885 8.86 65.6745 8.678 65.8285 8.482C65.9825 8.286 66.1575 8.139 66.3535 8.041C66.6475 7.971 66.8785 7.957 67.0465 7.999C67.2285 8.027 67.4105 8.146 67.5925 8.356C67.7045 8.538 67.8165 8.734 67.9285 8.944C68.0405 9.154 68.0965 9.455 68.0965 9.847C68.0965 10.015 68.0895 10.204 68.0755 10.414C68.0615 10.61 68.0475 10.792 68.0335 10.96C68.0195 11.128 68.0055 11.261 67.9915 11.359C67.8515 11.877 67.7255 12.325 67.6135 12.703C67.5015 13.081 67.4805 13.27 67.5505 13.27C67.8305 13.046 68.0685 12.829 68.2645 12.619C68.4745 12.409 68.6985 12.157 68.9365 11.863C69.1745 11.569 69.4685 11.184 69.8185 10.708C69.9445 10.47 70.0705 10.239 70.1965 10.015C70.3225 9.791 70.4275 9.56 70.5115 9.322C70.5955 9.14 70.7075 8.951 70.8475 8.755C70.9875 8.545 71.0855 8.433 71.1415 8.419C71.2115 8.391 71.3095 8.398 71.4355 8.44C71.5615 8.482 71.6805 8.531 71.7925 8.587C71.9185 8.629 71.9815 8.664 71.9815 8.692C71.9955 8.706 72.0655 8.72 72.1915 8.734C72.3175 8.748 72.4435 8.762 72.5695 8.776C72.6955 8.776 72.7585 8.797 72.7585 8.839C72.7585 8.867 72.7165 8.972 72.6325 9.154C72.5625 9.336 72.4785 9.539 72.3805 9.763C72.2825 9.987 72.1915 10.19 72.1075 10.372C72.0375 10.54 72.0095 10.638 72.0235 10.666C72.0515 10.694 72.0305 10.799 71.9605 10.981C71.8905 11.149 71.8065 11.338 71.7085 11.548C71.6245 11.758 71.5475 11.947 71.4775 12.115C71.3375 12.577 71.1765 13.039 70.9945 13.501C70.8125 13.949 70.5955 14.397 70.3435 14.845C70.2595 15.013 70.1335 15.272 69.9655 15.622C69.8115 15.972 69.6575 16.315 69.5035 16.651C69.3635 17.001 69.2515 17.267 69.1675 17.449C69.1115 17.561 69.0275 17.736 68.9155 17.974C68.8175 18.226 68.7055 18.499 68.5795 18.793C68.4675 19.087 68.3555 19.36 68.2435 19.612C68.1315 19.878 68.0475 20.081 67.9915 20.221C67.9635 20.487 67.9005 20.683 67.8025 20.809C67.6765 20.935 67.5015 20.998 67.2775 20.998C67.0675 20.998 66.9625 20.998 66.9625 20.998ZM87.7107 16.525C87.6407 16.525 87.5217 16.49 87.3537 16.42C87.1857 16.364 87.0247 16.287 86.8707 16.189C86.7307 16.091 86.6607 15.986 86.6607 15.874C86.6607 15.874 86.6537 15.832 86.6397 15.748C86.6397 15.65 86.6117 15.552 86.5557 15.454C86.5557 15.342 86.5557 15.216 86.5557 15.076C86.5697 14.922 86.6047 14.768 86.6607 14.614C86.6607 14.46 86.6817 14.292 86.7237 14.11C86.7657 13.914 86.8147 13.767 86.8707 13.669C86.8707 13.515 86.9057 13.319 86.9757 13.081C87.0597 12.829 87.1297 12.598 87.1857 12.388C87.3397 11.926 87.4517 11.59 87.5217 11.38C87.6057 11.17 87.6617 11.016 87.6897 10.918C87.7177 10.806 87.7317 10.694 87.7317 10.582C87.7737 10.47 87.8367 10.267 87.9207 9.973C88.0047 9.679 88.0887 9.378 88.1727 9.07C88.2707 8.748 88.3337 8.517 88.3617 8.377C88.4177 8.321 88.4457 8.272 88.4457 8.23C88.4597 8.174 88.4667 8.118 88.4667 8.062C88.4667 8.062 88.5157 7.901 88.6137 7.579C88.7117 7.257 88.8377 6.886 88.9917 6.466C89.2437 5.724 89.4117 5.185 89.4957 4.849C89.5937 4.513 89.6357 4.275 89.6217 4.135C89.6217 3.995 89.5867 3.855 89.5167 3.715C89.4187 3.533 89.4187 3.393 89.5167 3.295C89.5727 3.239 89.6217 3.176 89.6637 3.106C89.7057 3.022 89.7267 2.98 89.7267 2.98C89.7267 2.952 89.8247 2.896 90.0207 2.812C90.2307 2.714 90.4827 2.609 90.7767 2.497C91.0707 2.371 91.3647 2.259 91.6587 2.161C91.9527 2.049 92.1907 1.965 92.3727 1.909C92.4147 1.909 92.5127 1.909 92.6667 1.909C92.8347 1.909 93.0097 1.909 93.1917 1.909C93.3877 1.909 93.5417 1.909 93.6537 1.909C94.0177 1.965 94.3887 2.07 94.7667 2.224C95.1587 2.378 95.4877 2.595 95.7537 2.875C95.9217 3.029 96.1037 3.246 96.2997 3.526C96.5097 3.806 96.7197 4.184 96.9297 4.66C96.9297 4.716 96.9437 4.835 96.9717 5.017C97.0137 5.185 97.0347 5.353 97.0347 5.521C97.0347 5.941 96.9297 6.417 96.7197 6.949C96.5237 7.481 96.2297 8.02 95.8377 8.566C95.4457 9.098 94.9697 9.595 94.4097 10.057C93.8217 10.533 93.2127 10.855 92.5827 11.023C91.9527 11.191 91.3927 11.226 90.9027 11.128C90.6227 11.016 90.4337 10.862 90.3357 10.666C90.2377 10.456 90.1957 10.26 90.2097 10.078C90.2237 9.896 90.2517 9.784 90.2937 9.742C90.4057 9.714 90.5737 9.707 90.7977 9.721C91.0217 9.721 91.3787 9.63 91.8687 9.448C92.0227 9.392 92.1837 9.329 92.3517 9.259C92.5197 9.175 92.6527 9.105 92.7507 9.049C93.0307 8.867 93.3107 8.636 93.5907 8.356C93.8847 8.076 94.1857 7.691 94.4937 7.201C94.6197 7.005 94.7107 6.788 94.7667 6.55C94.8227 6.312 94.8577 6.074 94.8717 5.836C94.8997 5.584 94.9137 5.367 94.9137 5.185C95.0257 4.821 94.9557 4.52 94.7037 4.282C94.4657 4.03 94.0807 3.876 93.5487 3.82C93.3807 3.778 93.1707 3.771 92.9187 3.799C92.6807 3.827 92.4567 3.876 92.2467 3.946C92.0367 4.002 91.8757 4.065 91.7637 4.135C91.7077 4.135 91.6727 4.177 91.6587 4.261C91.6447 4.345 91.6097 4.443 91.5537 4.555C91.5537 4.653 91.5117 4.863 91.4277 5.185C91.3437 5.493 91.2457 5.78 91.1337 6.046C91.0357 6.354 90.9167 6.697 90.7767 7.075C90.6367 7.439 90.5387 7.726 90.4827 7.936C90.4267 8.16 90.3567 8.377 90.2727 8.587C90.2027 8.797 90.1677 8.902 90.1677 8.902C90.1677 8.958 90.1257 9.077 90.0417 9.259C89.9717 9.441 89.9087 9.637 89.8527 9.847C89.7967 10.113 89.7197 10.414 89.6217 10.75C89.5377 11.086 89.4397 11.387 89.3277 11.653C89.1737 12.171 89.0407 12.689 88.9287 13.207C88.8167 13.711 88.8097 14.04 88.9077 14.194C89.3277 14.208 89.5447 14.299 89.5587 14.467C89.5867 14.621 89.3697 14.985 88.9077 15.559C88.7677 15.909 88.6277 16.147 88.4877 16.273C88.3477 16.413 88.2077 16.49 88.0677 16.504C87.9417 16.518 87.8227 16.525 87.7107 16.525ZM100.524 15.433C100.398 15.335 100.258 15.209 100.104 15.055C99.9638 14.901 99.9148 14.684 99.9568 14.404C99.9988 14.012 100.055 13.669 100.125 13.375C100.195 13.067 100.279 12.717 100.377 12.325C100.405 12.157 100.475 11.87 100.587 11.464C100.713 11.058 100.86 10.617 101.028 10.141C101.196 9.665 101.371 9.217 101.553 8.797C101.735 8.363 101.896 8.041 102.036 7.831C102.19 7.691 102.414 7.621 102.708 7.621C103.016 7.621 103.226 7.677 103.338 7.789C103.492 7.915 103.541 8.139 103.485 8.461C103.429 8.769 103.233 9.252 102.897 9.91C102.827 10.078 102.736 10.26 102.624 10.456C102.526 10.638 102.456 10.792 102.414 10.918C102.372 11.03 102.386 11.079 102.456 11.065C102.54 10.911 102.694 10.736 102.918 10.54C103.142 10.33 103.38 10.127 103.632 9.931C103.884 9.735 104.122 9.56 104.346 9.406C104.57 9.252 104.724 9.154 104.808 9.112C104.92 9.042 105.046 8.986 105.186 8.944C105.34 8.888 105.445 8.846 105.501 8.818C105.823 8.664 106.173 8.608 106.551 8.65C106.943 8.678 107.181 8.797 107.265 9.007C107.279 9.119 107.321 9.203 107.391 9.259C107.475 9.315 107.517 9.343 107.517 9.343C107.573 9.343 107.601 9.364 107.601 9.406C107.615 9.448 107.622 9.469 107.622 9.469C107.622 9.567 107.524 9.707 107.328 9.889C107.146 10.071 106.943 10.169 106.719 10.183C106.537 10.197 106.376 10.232 106.236 10.288C106.096 10.344 105.928 10.414 105.732 10.498C105.2 10.806 104.717 11.079 104.283 11.317C103.863 11.555 103.429 11.919 102.981 12.409C102.883 12.521 102.778 12.626 102.666 12.724C102.554 12.822 102.442 12.962 102.33 13.144C102.26 13.214 102.19 13.368 102.12 13.606C102.05 13.844 101.987 14.075 101.931 14.299C101.889 14.509 101.868 14.635 101.868 14.677C101.868 14.677 101.847 14.747 101.805 14.887C101.763 15.013 101.693 15.139 101.595 15.265C101.427 15.489 101.259 15.629 101.091 15.685C100.937 15.741 100.748 15.657 100.524 15.433ZM113.761 15.706C113.649 15.734 113.502 15.748 113.32 15.748C113.138 15.734 112.977 15.713 112.837 15.685C112.711 15.643 112.648 15.601 112.648 15.559C112.648 15.489 112.613 15.454 112.543 15.454C112.543 15.454 112.466 15.398 112.312 15.286C112.158 15.16 112.018 15.069 111.892 15.013C111.766 14.817 111.682 14.593 111.64 14.341C111.612 14.075 111.696 13.613 111.892 12.955C111.906 12.507 112.032 12.038 112.27 11.548C112.508 11.044 112.809 10.554 113.173 10.078C113.537 9.602 113.915 9.182 114.307 8.818C114.699 8.44 115.049 8.16 115.357 7.978C115.553 7.782 115.812 7.677 116.134 7.663C116.47 7.649 116.764 7.712 117.016 7.852C117.156 7.922 117.31 8.062 117.478 8.272C117.646 8.482 117.807 8.706 117.961 8.944C118.115 9.168 118.234 9.371 118.318 9.553C118.36 9.707 118.395 9.847 118.423 9.973C118.465 10.085 118.493 10.225 118.507 10.393C118.521 10.561 118.507 10.813 118.465 11.149C118.395 11.401 118.332 11.66 118.276 11.926C118.234 12.178 118.213 12.437 118.213 12.703C118.185 12.969 118.213 13.158 118.297 13.27C118.395 13.382 118.535 13.389 118.717 13.291C118.885 13.207 119.06 13.2 119.242 13.27C119.424 13.326 119.55 13.438 119.62 13.606C119.704 13.76 119.683 13.963 119.557 14.215C119.473 14.397 119.34 14.572 119.158 14.74C118.976 14.908 118.773 15.048 118.549 15.16C118.325 15.258 118.108 15.307 117.898 15.307C117.744 15.307 117.59 15.251 117.436 15.139C117.282 15.013 117.142 14.845 117.016 14.635C116.89 14.425 116.785 14.194 116.701 13.942L116.575 13.459L115.819 14.152C115.637 14.348 115.455 14.53 115.273 14.698C115.105 14.852 115 14.964 114.958 15.034C114.888 15.16 114.748 15.272 114.538 15.37C114.342 15.468 114.083 15.58 113.761 15.706ZM114.328 13.69C114.566 13.55 114.769 13.382 114.937 13.186C115.119 12.99 115.294 12.773 115.462 12.535C115.63 12.283 115.812 12.017 116.008 11.737C116.246 11.415 116.414 11.156 116.512 10.96C116.624 10.764 116.708 10.554 116.764 10.33C116.708 10.176 116.631 10.015 116.533 9.847C116.435 9.665 116.337 9.567 116.239 9.553C116.043 9.553 115.805 9.672 115.525 9.91C115.259 10.148 114.965 10.491 114.643 10.939C114.587 11.009 114.517 11.121 114.433 11.275C114.349 11.429 114.265 11.576 114.181 11.716C114.111 11.842 114.062 11.926 114.034 11.968C113.992 12.024 113.929 12.157 113.845 12.367C113.775 12.563 113.712 12.766 113.656 12.976C113.6 13.172 113.572 13.312 113.572 13.396C113.572 13.48 113.579 13.571 113.593 13.669C113.621 13.767 113.691 13.83 113.803 13.858C113.915 13.886 114.09 13.83 114.328 13.69ZM121.681 20.788C121.303 20.634 120.995 20.382 120.757 20.032C120.505 19.682 120.337 19.304 120.253 18.898C120.169 18.506 120.169 18.17 120.253 17.89C120.323 17.694 120.428 17.561 120.568 17.491C120.694 17.421 120.806 17.386 120.904 17.386C120.96 17.386 121.037 17.435 121.135 17.533C121.233 17.631 121.324 17.743 121.408 17.869C121.492 18.009 121.534 18.135 121.534 18.247C121.534 18.387 121.583 18.52 121.681 18.646C121.765 18.786 121.877 18.898 122.017 18.982C122.143 19.066 122.276 19.122 122.416 19.15C122.668 19.164 122.864 19.087 123.004 18.919C123.158 18.751 123.326 18.471 123.508 18.079C123.69 17.799 123.816 17.561 123.886 17.365C123.956 17.169 124.005 16.98 124.033 16.798C124.075 16.63 124.117 16.441 124.159 16.231C124.243 15.993 124.32 15.706 124.39 15.37C124.46 15.02 124.53 14.656 124.6 14.278C124.67 13.9 124.733 13.55 124.789 13.228C124.817 13.06 124.859 12.864 124.915 12.64C124.985 12.402 125.069 12.213 125.167 12.073C125.209 11.849 125.272 11.555 125.356 11.191C125.454 10.827 125.566 10.463 125.692 10.099C125.818 9.721 125.944 9.399 126.07 9.133C126.126 9.021 126.175 8.923 126.217 8.839C126.259 8.741 126.315 8.622 126.385 8.482C126.539 8.37 126.721 8.321 126.931 8.335C127.155 8.349 127.379 8.384 127.603 8.44C128.009 8.594 128.296 8.762 128.464 8.944C128.646 9.126 128.744 9.301 128.758 9.469C128.786 9.637 128.751 9.777 128.653 9.889C128.597 9.945 128.527 9.98 128.443 9.994C128.373 9.994 128.296 9.98 128.212 9.952C128.198 9.924 128.163 9.903 128.107 9.889C128.051 9.861 128.023 9.847 128.023 9.847C127.939 9.847 127.841 9.945 127.729 10.141C127.631 10.337 127.526 10.582 127.414 10.876C127.302 11.156 127.197 11.443 127.099 11.737C127.015 12.017 126.945 12.255 126.889 12.451C126.889 12.465 126.854 12.605 126.784 12.871C126.714 13.123 126.637 13.382 126.553 13.648C126.483 13.914 126.441 14.089 126.427 14.173C126.371 14.453 126.329 14.67 126.301 14.824C126.287 14.978 126.259 15.132 126.217 15.286C126.161 15.58 126.091 15.86 126.007 16.126C125.937 16.406 125.846 16.686 125.734 16.966C125.65 17.302 125.531 17.652 125.377 18.016C125.237 18.38 125.055 18.744 124.831 19.108C124.565 19.584 124.257 19.955 123.907 20.221C123.571 20.487 123.277 20.669 123.025 20.767C122.843 20.837 122.626 20.872 122.374 20.872C122.108 20.886 121.877 20.858 121.681 20.788ZM127.54 5.92C127.358 5.766 127.253 5.584 127.225 5.374C127.197 5.15 127.253 4.926 127.393 4.702C127.463 4.562 127.519 4.422 127.561 4.282C127.617 4.142 127.652 4.002 127.666 3.862C127.988 3.694 128.289 3.596 128.569 3.568C128.863 3.54 129.094 3.603 129.262 3.757C129.458 3.981 129.535 4.289 129.493 4.681C129.465 5.073 129.311 5.437 129.031 5.773C128.793 6.039 128.527 6.172 128.233 6.172C127.939 6.158 127.708 6.074 127.54 5.92ZM134.615 15.622C134.447 15.664 134.258 15.615 134.048 15.475C133.838 15.335 133.649 15.16 133.481 14.95C133.313 14.74 133.208 14.551 133.166 14.383C133.11 14.089 133.124 13.732 133.208 13.312C133.306 12.878 133.467 12.423 133.691 11.947C133.915 11.457 134.195 10.981 134.531 10.519C134.867 10.043 135.245 9.616 135.665 9.238C136.085 8.86 136.54 8.566 137.03 8.356C137.24 8.244 137.387 8.174 137.471 8.146C137.555 8.104 137.639 8.104 137.723 8.146C137.807 8.174 137.954 8.244 138.164 8.356C138.36 8.412 138.556 8.482 138.752 8.566C138.962 8.636 139.144 8.776 139.298 8.986C139.41 9.196 139.494 9.406 139.55 9.616C139.606 9.826 139.655 10.064 139.697 10.33C139.809 10.68 139.851 10.911 139.823 11.023C139.795 11.121 139.753 11.198 139.697 11.254C139.585 11.394 139.557 11.464 139.613 11.464C139.613 11.464 139.606 11.492 139.592 11.548C139.592 11.59 139.564 11.66 139.508 11.758C139.41 12.066 139.333 12.36 139.277 12.64C139.235 12.906 139.242 13.144 139.298 13.354C139.41 13.662 139.557 13.844 139.739 13.9C139.935 13.956 140.187 13.83 140.495 13.522C140.649 13.41 140.824 13.34 141.02 13.312C141.216 13.27 141.314 13.305 141.314 13.417C141.314 13.417 141.335 13.438 141.377 13.48C141.419 13.508 141.468 13.522 141.524 13.522C141.594 13.522 141.622 13.592 141.608 13.732C141.594 13.858 141.566 14.005 141.524 14.173C141.482 14.341 141.426 14.481 141.356 14.593C141.146 14.803 141.041 14.943 141.041 15.013C141.041 15.013 141.013 15.041 140.957 15.097C140.915 15.139 140.838 15.209 140.726 15.307C140.474 15.461 140.152 15.538 139.76 15.538C139.382 15.538 139.088 15.461 138.878 15.307C138.668 15.153 138.458 14.964 138.248 14.74C138.052 14.516 137.926 14.306 137.87 14.11L137.765 13.9L137.156 14.299C137.002 14.453 136.89 14.572 136.82 14.656C136.75 14.726 136.687 14.789 136.631 14.845C136.589 14.901 136.54 14.95 136.484 14.992C136.442 15.034 136.393 15.055 136.337 15.055C136.281 15.055 136.232 15.055 136.19 15.055C136.148 15.055 136.127 15.055 136.127 15.055C136.127 15.111 136.029 15.188 135.833 15.286C135.637 15.37 135.42 15.447 135.182 15.517C134.944 15.587 134.755 15.622 134.615 15.622ZM135.056 13.858C135.14 13.858 135.266 13.809 135.434 13.711C135.616 13.599 135.812 13.466 136.022 13.312C136.232 13.158 136.421 13.004 136.589 12.85C136.771 12.696 136.904 12.57 136.988 12.472C137.044 12.416 137.107 12.325 137.177 12.199C137.261 12.073 137.352 11.961 137.45 11.863C137.772 11.499 137.975 11.212 138.059 11.002C138.143 10.778 138.108 10.54 137.954 10.288C137.898 10.134 137.828 10.05 137.744 10.036C137.66 10.022 137.485 10.071 137.219 10.183C137.051 10.281 136.869 10.442 136.673 10.666C136.477 10.89 136.274 11.142 136.064 11.422C135.868 11.702 135.686 11.989 135.518 12.283C135.35 12.577 135.21 12.843 135.098 13.081C135 13.319 134.951 13.508 134.951 13.648C134.951 13.704 134.965 13.753 134.993 13.795C135.035 13.837 135.056 13.858 135.056 13.858ZM145.471 21.103C145.373 21.061 145.219 20.956 145.009 20.788C144.813 20.62 144.631 20.438 144.463 20.242C144.309 20.06 144.232 19.927 144.232 19.843C144.232 19.759 144.267 19.535 144.337 19.171C144.407 18.821 144.498 18.387 144.61 17.869C144.736 17.365 144.869 16.847 145.009 16.315C145.163 15.797 145.317 15.335 145.471 14.929C145.499 14.859 145.59 14.628 145.744 14.236C145.912 13.83 146.073 13.34 146.227 12.766C146.339 12.402 146.486 11.989 146.668 11.527C146.85 11.065 147.039 10.603 147.235 10.141C147.431 9.665 147.592 9.245 147.718 8.881C147.844 8.517 147.984 8.153 148.138 7.789C148.292 7.411 148.376 7.194 148.39 7.138C148.418 7.054 148.495 6.984 148.621 6.928C148.761 6.858 148.901 6.802 149.041 6.76C149.181 6.704 149.272 6.669 149.314 6.655C149.566 6.585 149.783 6.69 149.965 6.97C150.035 7.096 150.049 7.271 150.007 7.495C149.979 7.705 149.909 7.936 149.797 8.188L149.65 8.608L150.406 8.44C150.532 8.44 150.707 8.447 150.931 8.461C151.155 8.475 151.372 8.489 151.582 8.503C151.806 8.517 151.96 8.538 152.044 8.566C152.38 8.58 152.611 8.643 152.737 8.755C152.877 8.867 152.996 9.014 153.094 9.196C153.164 9.266 153.248 9.364 153.346 9.49C153.444 9.602 153.5 9.714 153.514 9.826C153.57 10.064 153.549 10.344 153.451 10.666C153.367 10.988 153.234 11.317 153.052 11.653C152.884 11.975 152.681 12.276 152.443 12.556C152.219 12.822 152.002 13.025 151.792 13.165C151.652 13.221 151.526 13.284 151.414 13.354C151.302 13.41 151.246 13.438 151.246 13.438C151.232 13.508 151.085 13.627 150.805 13.795C150.539 13.963 150.224 14.124 149.86 14.278C149.51 14.418 149.195 14.509 148.915 14.551C148.817 14.565 148.677 14.579 148.495 14.593C148.313 14.607 148.173 14.586 148.075 14.53C147.921 14.502 147.816 14.488 147.76 14.488C147.704 14.488 147.676 14.516 147.676 14.572C147.662 14.6 147.564 14.824 147.382 15.244C147.2 15.664 147.011 16.245 146.815 16.987C146.549 17.799 146.332 18.464 146.164 18.982C145.996 19.514 145.863 19.927 145.765 20.221C145.681 20.515 145.618 20.725 145.576 20.851C145.534 20.991 145.499 21.075 145.471 21.103ZM148.18 12.724C148.222 12.808 148.369 12.836 148.621 12.808C148.873 12.766 149.16 12.682 149.482 12.556C149.804 12.43 150.091 12.283 150.343 12.115C150.609 11.933 150.763 11.744 150.805 11.548C151.113 11.198 151.33 10.946 151.456 10.792C151.582 10.624 151.575 10.491 151.435 10.393C151.281 10.169 151.057 10.064 150.763 10.078C150.483 10.092 150.035 10.267 149.419 10.603C149.181 10.687 149.02 10.764 148.936 10.834C148.852 10.89 148.782 10.981 148.726 11.107C148.684 11.233 148.6 11.436 148.474 11.716C148.348 12.024 148.264 12.255 148.222 12.409C148.18 12.563 148.166 12.668 148.18 12.724ZM159.015 15.559C158.959 15.447 158.833 15.335 158.637 15.223C158.455 15.111 158.364 15.027 158.364 14.971C158.364 14.915 158.329 14.831 158.259 14.719C158.203 14.593 158.147 14.502 158.091 14.446C158.021 14.362 158.042 14.159 158.154 13.837C158.266 13.501 158.434 13.095 158.658 12.619C158.882 12.143 159.127 11.66 159.393 11.17C159.505 11.058 159.617 10.911 159.729 10.729C159.841 10.547 159.925 10.428 159.981 10.372C159.981 10.316 160.002 10.267 160.044 10.225C160.086 10.169 160.135 10.141 160.191 10.141L160.359 9.805C160.387 9.749 160.471 9.637 160.611 9.469C160.765 9.301 160.947 9.119 161.157 8.923C161.367 8.713 161.577 8.517 161.787 8.335C162.011 8.153 162.193 8.02 162.333 7.936C162.627 7.74 162.928 7.649 163.236 7.663C163.558 7.677 163.831 7.775 164.055 7.957C164.097 7.999 164.188 8.083 164.328 8.209C164.482 8.335 164.65 8.475 164.832 8.629C165.028 8.783 165.196 8.923 165.336 9.049L166.113 9.742L165.756 10.792C165.574 11.352 165.525 11.842 165.609 12.262C165.693 12.682 165.826 13.046 166.008 13.354C166.078 13.508 166.169 13.627 166.281 13.711C166.407 13.795 166.568 13.851 166.764 13.879C166.876 13.893 166.981 13.935 167.079 14.005C167.177 14.075 167.226 14.187 167.226 14.341C167.226 14.677 167.163 14.922 167.037 15.076C166.925 15.216 166.799 15.3 166.659 15.328C166.197 15.384 165.756 15.335 165.336 15.181C164.916 15.027 164.538 14.628 164.202 13.984C164.146 13.9 164.069 13.746 163.971 13.522C163.887 13.284 163.838 13.13 163.824 13.06C163.768 13.13 163.691 13.221 163.593 13.333C163.509 13.431 163.425 13.522 163.341 13.606C162.347 14.614 161.493 15.272 160.779 15.58C160.079 15.874 159.491 15.867 159.015 15.559ZM160.17 13.816C160.268 13.83 160.422 13.781 160.632 13.669C160.842 13.543 161.122 13.34 161.472 13.06C161.948 12.654 162.34 12.318 162.648 12.052C162.956 11.786 163.257 11.443 163.551 11.023L164.013 10.267C163.873 9.945 163.747 9.735 163.635 9.637C163.523 9.539 163.411 9.49 163.299 9.49C163.117 9.49 162.9 9.609 162.648 9.847C162.396 10.071 162.109 10.407 161.787 10.855C161.479 11.289 161.129 11.835 160.737 12.493C160.555 12.801 160.415 13.102 160.317 13.396C160.219 13.676 160.17 13.816 160.17 13.816ZM173.574 16.021C173.42 15.993 173.252 15.902 173.07 15.748C172.888 15.58 172.72 15.398 172.566 15.202C172.426 14.992 172.335 14.817 172.293 14.677C172.293 14.649 172.272 14.614 172.23 14.572C172.202 14.53 172.188 14.509 172.188 14.509C172.132 14.467 172.097 14.285 172.083 13.963C172.083 13.627 172.104 13.256 172.146 12.85C172.188 12.444 172.237 12.122 172.293 11.884C172.363 11.66 172.468 11.359 172.608 10.981C172.748 10.589 172.867 10.239 172.965 9.931L173.532 8.713L172.692 8.482C172.594 8.454 172.51 8.398 172.44 8.314C172.384 8.23 172.356 8.16 172.356 8.104C172.356 7.992 172.419 7.831 172.545 7.621C172.671 7.411 172.762 7.306 172.818 7.306C172.888 7.32 173.014 7.327 173.196 7.327C173.392 7.327 173.581 7.32 173.763 7.306C173.945 7.292 174.057 7.278 174.099 7.264C174.155 7.236 174.211 7.201 174.267 7.159C174.323 7.103 174.365 7.026 174.393 6.928C174.463 6.774 174.526 6.655 174.582 6.571C174.638 6.487 174.715 6.361 174.813 6.193C174.911 6.011 174.988 5.857 175.044 5.731C175.114 5.605 175.219 5.43 175.359 5.206C175.429 5.108 175.506 4.989 175.59 4.849C175.674 4.709 175.779 4.59 175.905 4.492C176.031 4.38 176.234 4.303 176.514 4.261C176.808 4.205 177.06 4.268 177.27 4.45C177.382 4.59 177.445 4.723 177.459 4.849C177.473 4.975 177.417 5.136 177.291 5.332C177.179 5.57 177.046 5.787 176.892 5.983C176.752 6.165 176.619 6.375 176.493 6.613C176.269 6.921 176.227 7.096 176.367 7.138C176.507 7.18 176.899 7.152 177.543 7.054C177.949 6.984 178.243 7.026 178.425 7.18C178.607 7.334 178.712 7.53 178.74 7.768C178.782 8.104 178.747 8.307 178.635 8.377C178.523 8.447 178.201 8.482 177.669 8.482C177.333 8.538 177.046 8.573 176.808 8.587C176.57 8.587 176.395 8.587 176.283 8.587C176.101 8.601 175.982 8.608 175.926 8.608C175.87 8.608 175.786 8.622 175.674 8.65C175.562 8.678 175.478 8.727 175.422 8.797C175.38 8.853 175.331 8.937 175.275 9.049C175.219 9.105 175.135 9.252 175.023 9.49C174.911 9.728 174.771 9.987 174.603 10.267C174.407 10.855 174.239 11.422 174.099 11.968C173.973 12.5 173.861 13.032 173.763 13.564C173.721 13.83 173.728 14.026 173.784 14.152C173.854 14.264 174.036 14.334 174.33 14.362C174.484 14.376 174.708 14.376 175.002 14.362C175.296 14.334 175.541 14.292 175.737 14.236C175.891 14.166 176.052 14.096 176.22 14.026C176.388 13.942 176.542 13.858 176.682 13.774C176.808 13.704 176.934 13.634 177.06 13.564C177.186 13.48 177.249 13.438 177.249 13.438C177.319 13.326 177.417 13.347 177.543 13.501C177.683 13.641 177.781 13.795 177.837 13.963C177.837 14.131 177.802 14.334 177.732 14.572C177.662 14.796 177.403 15.034 176.955 15.286C176.325 15.678 175.695 15.916 175.065 16C174.435 16.084 173.938 16.091 173.574 16.021ZM184.726 15.979C184.39 15.979 184.096 15.804 183.844 15.454C183.606 15.09 183.459 14.656 183.403 14.152C183.417 14.04 183.431 13.879 183.445 13.669C183.473 13.459 183.501 13.242 183.529 13.018C183.585 12.752 183.662 12.409 183.76 11.989C183.858 11.569 183.963 11.149 184.075 10.729C184.187 10.295 184.285 9.924 184.369 9.616C184.453 9.294 184.502 9.105 184.516 9.049C184.6 8.853 184.789 8.804 185.083 8.902C185.377 9 185.629 9.21 185.839 9.532C185.923 9.644 185.972 9.777 185.986 9.931C186.014 10.085 185.993 10.309 185.923 10.603C185.867 10.897 185.755 11.331 185.587 11.905C185.433 12.465 185.314 12.92 185.23 13.27C185.16 13.606 185.132 13.963 185.146 14.341C185.09 14.985 185.034 15.426 184.978 15.664C184.922 15.888 184.838 15.993 184.726 15.979ZM186.658 7.264C186.602 7.306 186.546 7.327 186.49 7.327C186.448 7.313 186.371 7.271 186.259 7.201C186.161 7.187 186.035 7.124 185.881 7.012C185.741 6.886 185.615 6.76 185.503 6.634C185.405 6.508 185.356 6.431 185.356 6.403C185.342 6.263 185.349 6.039 185.377 5.731C185.419 5.423 185.496 5.136 185.608 4.87C185.734 4.59 185.902 4.443 186.112 4.429C186.168 4.429 186.287 4.457 186.469 4.513C186.665 4.569 186.868 4.639 187.078 4.723C187.19 4.933 187.295 5.206 187.393 5.542C187.491 5.878 187.498 6.207 187.414 6.529C187.344 6.837 187.092 7.082 186.658 7.264ZM191.116 18.415C190.696 18.429 190.388 18.212 190.192 17.764C190.01 17.33 190.115 16.644 190.507 15.706C190.591 15.552 190.668 15.398 190.738 15.244C190.822 15.09 190.871 14.964 190.885 14.866C190.927 14.768 191.018 14.579 191.158 14.299C191.298 14.005 191.473 13.655 191.683 13.249C191.893 12.843 192.11 12.423 192.334 11.989C192.572 11.555 192.789 11.149 192.985 10.771C193.195 10.379 193.37 10.057 193.51 9.805C193.65 9.553 193.734 9.406 193.762 9.364C193.832 9.378 193.895 9.343 193.951 9.259C194.007 9.161 194.042 9.063 194.056 8.965C194.084 8.839 194.133 8.713 194.203 8.587C194.273 8.461 194.343 8.384 194.413 8.356C194.427 8.286 194.455 8.209 194.497 8.125C194.539 8.041 194.567 7.971 194.581 7.915C194.595 7.859 194.623 7.81 194.665 7.768C194.707 7.712 194.728 7.656 194.728 7.6C194.84 7.46 195.008 7.201 195.232 6.823C195.47 6.445 195.736 6.004 196.03 5.5C196.324 4.982 196.625 4.45 196.933 3.904C197.241 3.344 197.528 2.819 197.794 2.329C198.06 1.839 198.277 1.433 198.445 1.111C198.613 0.774999 198.704 0.578999 198.718 0.522999C198.732 0.312999 198.865 0.228999 199.117 0.271C199.215 0.201 199.327 0.18 199.453 0.207999C199.453 0.207999 199.523 0.284999 199.663 0.438999C199.817 0.579 199.943 0.719 200.041 0.859C200.153 0.970999 200.202 1.09 200.188 1.216C200.188 1.342 200.167 1.482 200.125 1.636C200.097 1.818 200.048 1.979 199.978 2.119C199.922 2.259 199.803 2.448 199.621 2.686C199.453 2.924 199.194 3.295 198.844 3.799C198.76 3.925 198.627 4.135 198.445 4.429C198.277 4.723 198.095 5.031 197.899 5.353C197.717 5.675 197.563 5.955 197.437 6.193C197.311 6.431 197.248 6.564 197.248 6.592C197.234 6.648 197.185 6.732 197.101 6.844C197.031 6.942 196.961 7.075 196.891 7.243C196.807 7.341 196.695 7.495 196.555 7.705C196.429 7.901 196.296 8.111 196.156 8.335C196.016 8.545 195.89 8.734 195.778 8.902C195.68 9.056 195.631 9.147 195.631 9.175C195.617 9.217 195.596 9.266 195.568 9.322C195.554 9.378 195.512 9.427 195.442 9.469C195.4 9.455 195.365 9.49 195.337 9.574C195.309 9.644 195.295 9.679 195.295 9.679C195.323 9.791 195.155 10.141 194.791 10.729C194.651 11.023 194.462 11.408 194.224 11.884C193.986 12.36 193.727 12.871 193.447 13.417C193.181 13.963 192.922 14.495 192.67 15.013C192.418 15.531 192.208 15.986 192.04 16.378C191.872 16.77 191.774 17.043 191.746 17.197C191.69 17.519 191.599 17.792 191.473 18.016C191.347 18.24 191.228 18.373 191.116 18.415ZM204.746 15.58C204.662 15.608 204.529 15.552 204.347 15.412C204.179 15.258 204.06 15.16 203.99 15.118C203.85 15.006 203.745 14.936 203.675 14.908C203.605 14.866 203.556 14.789 203.528 14.677C203.528 14.677 203.542 14.614 203.57 14.488C203.612 14.362 203.682 14.257 203.78 14.173C203.976 14.005 204.228 13.844 204.536 13.69C204.858 13.522 205.243 13.319 205.691 13.081C206.153 12.843 206.685 12.542 207.287 12.178C207.665 11.94 207.952 11.779 208.148 11.695C208.344 11.611 208.47 11.534 208.526 11.464C208.582 11.394 208.596 11.268 208.568 11.086C208.33 10.806 207.938 10.526 207.392 10.246C206.86 9.952 206.069 9.644 205.019 9.322C204.501 9.154 204.116 9 203.864 8.86C203.612 8.706 203.444 8.552 203.36 8.398C203.29 8.244 203.269 8.076 203.297 7.894C203.367 7.768 203.542 7.67 203.822 7.6C204.102 7.516 204.417 7.474 204.767 7.474C205.131 7.474 205.46 7.544 205.754 7.684C206.188 7.796 206.566 7.901 206.888 7.999C207.21 8.083 207.567 8.279 207.959 8.587C208.435 8.853 208.813 9.077 209.093 9.259C209.387 9.441 209.667 9.721 209.933 10.099L210.626 10.939L210.857 12.052C210.745 12.066 210.64 12.101 210.542 12.157C210.444 12.213 210.381 12.248 210.353 12.262C210.185 12.346 210.01 12.451 209.828 12.577C209.66 12.689 209.429 12.843 209.135 13.039C208.841 13.221 208.428 13.466 207.896 13.774C207.252 14.11 206.692 14.418 206.216 14.698C205.74 14.978 205.432 15.188 205.292 15.328C205.208 15.426 205.11 15.496 204.998 15.538C204.9 15.566 204.816 15.58 204.746 15.58Z" fill="white"/>
</svg>
