<svg width="40" height="41" viewBox="0 0 40 41" fill="none" xmlns="http://www.w3.org/2000/svg">
<path d="M20.1845 23.2461C21.967 23.2461 23.412 21.8011 23.412 20.0186C23.412 18.2361 21.967 16.7911 20.1845 16.7911C18.402 16.7911 16.957 18.2361 16.957 20.0186C16.957 21.8011 18.402 23.2461 20.1845 23.2461Z" fill="white"/>
<path d="M32.4434 14.696C31.8206 14.4695 31.1694 14.243 30.4899 14.0448C30.6598 13.3653 30.8014 12.6859 30.9146 12.0347C31.5092 8.29757 30.858 5.66459 29.0461 4.64537C28.5081 4.33394 27.9136 4.19238 27.2341 4.19238C25.2523 4.19238 22.7326 5.66459 20.1845 8.1277C17.6365 5.66459 15.1167 4.19238 13.1349 4.19238C12.4554 4.19238 11.8609 4.33394 11.323 4.64537C9.51102 5.6929 8.85986 8.32588 9.4544 12.0347C9.56765 12.6859 9.7092 13.3653 9.87907 14.0448C9.19959 14.243 8.54843 14.4412 7.92557 14.696C4.38662 16.055 2.46143 17.9235 2.46143 20.0186C2.46143 22.1136 4.41493 23.9822 7.92557 25.3412C8.54843 25.5677 9.19959 25.7942 9.87907 25.9923C9.7092 26.6718 9.56765 27.3513 9.4544 28.0025C8.85986 31.7396 9.51102 34.3726 11.323 35.3918C11.8609 35.7032 12.4554 35.8448 13.1349 35.8448C15.145 35.8448 17.6648 34.3726 20.1845 31.9095C22.7326 34.3726 25.2523 35.8448 27.2341 35.8448C27.9136 35.8448 28.5081 35.7032 29.0461 35.3918C30.858 34.3443 31.5092 31.7113 30.9146 28.0025C30.8014 27.3513 30.6598 26.6718 30.4899 25.9923C31.1694 25.7942 31.8206 25.596 32.4434 25.3412C35.9824 23.9822 37.9076 22.1136 37.9076 20.0186C37.9076 17.9235 35.9824 16.055 32.4434 14.696ZM28.2533 6.06095C29.4141 6.74043 29.8105 8.83549 29.3292 11.8082C29.2442 12.4028 29.1027 13.0256 28.9328 13.6768C27.4606 13.337 25.9035 13.1105 24.2614 12.969C23.2988 11.61 22.3079 10.3926 21.317 9.28848C23.412 7.22173 25.5354 5.80615 27.2624 5.80615C27.6305 5.80615 27.9702 5.89108 28.2533 6.06095ZM25.0824 22.8497C24.5728 23.7557 23.9783 24.6617 23.3554 25.5677C22.3079 25.6526 21.2604 25.6809 20.1845 25.6809C19.0804 25.6809 18.0328 25.6526 17.0136 25.5677C16.3907 24.6617 15.8245 23.7557 15.3149 22.8497C14.777 21.9155 14.2674 20.9529 13.8144 20.0186C14.2674 19.0843 14.777 18.1217 15.3149 17.1874C15.8245 16.2814 16.4191 15.3755 17.0419 14.4695C18.0894 14.3846 19.137 14.3563 20.2128 14.3563C21.317 14.3563 22.3645 14.3846 23.3837 14.4695C24.0066 15.3755 24.5728 16.2814 25.0824 17.1874C25.6203 18.1217 26.13 19.0843 26.5829 20.0186C26.1016 20.9529 25.6203 21.8871 25.0824 22.8497ZM27.4323 21.9155C27.857 22.9064 28.1967 23.869 28.5081 24.8316C27.5455 25.0581 26.5263 25.2279 25.4505 25.3695C25.7902 24.8316 26.1583 24.2653 26.4697 23.6708C26.8094 23.0762 27.1209 22.4817 27.4323 21.9155ZM20.1845 29.5879C19.505 28.8518 18.8539 28.0591 18.231 27.238C18.8822 27.2664 19.5333 27.2947 20.1845 27.2947C20.8357 27.2947 21.4868 27.2664 22.138 27.238C21.5152 28.0591 20.864 28.8518 20.1845 29.5879ZM14.9185 25.3412C13.8427 25.1996 12.8235 25.0297 11.8609 24.8032C12.1723 23.869 12.5121 22.8781 12.9367 21.8871C13.2482 22.4534 13.5596 23.0479 13.8993 23.6142C14.2391 24.237 14.5788 24.7749 14.9185 25.3412ZM12.9367 18.1217C12.5121 17.1308 12.1723 16.1682 11.8609 15.2056C12.8235 14.9791 13.8427 14.8092 14.9185 14.6677C14.5788 15.2056 14.2108 15.7718 13.8993 16.3664C13.5596 16.9609 13.2482 17.5555 12.9367 18.1217ZM20.1845 10.4493C20.864 11.1854 21.5152 11.9781 22.138 12.7991C21.4868 12.7708 20.8357 12.7425 20.1845 12.7425C19.5333 12.7425 18.8822 12.7708 18.231 12.7991C18.8539 11.9781 19.505 11.1854 20.1845 10.4493ZM26.4697 16.3947L25.4505 14.696C26.5263 14.8376 27.5455 15.0074 28.5081 15.2339C28.1967 16.1682 27.857 17.1591 27.4323 18.15C27.1209 17.5555 26.8094 16.9609 26.4697 16.3947ZM11.0399 11.8082C10.5586 8.83549 10.9549 6.74043 12.1157 6.06095C12.3988 5.89108 12.7385 5.80615 13.1066 5.80615C14.8053 5.80615 16.9287 7.19342 19.052 9.28848C18.0611 10.3643 17.0702 11.61 16.1076 12.969C14.4656 13.1105 12.9084 13.3653 11.4362 13.6768C11.2663 13.0256 11.1531 12.4028 11.0399 11.8082ZM4.04688 20.0186C4.04688 18.6879 5.66064 17.2724 8.4918 16.2248C9.05804 15.9983 9.68089 15.8001 10.3037 15.6303C10.7567 17.0459 11.323 18.5464 12.0024 20.0469C11.323 21.5474 10.7284 23.0196 10.3037 24.4352C6.39674 23.3027 4.04688 21.604 4.04688 20.0186ZM12.1157 33.9762C10.9549 33.2967 10.5586 31.2017 11.0399 28.229C11.1248 27.6344 11.2663 27.0116 11.4362 26.3604C12.9084 26.7001 14.4656 26.9266 16.1076 27.0682C17.0702 28.4271 18.0611 29.6445 19.052 30.7487C16.957 32.8154 14.8336 34.231 13.1066 34.231C12.7385 34.231 12.3988 34.1461 12.1157 33.9762ZM29.3292 28.229C29.8105 31.2017 29.4141 33.2967 28.2533 33.9762C27.9702 34.1461 27.6305 34.231 27.2624 34.231C25.5637 34.231 23.4403 32.8437 21.317 30.7487C22.3079 29.6728 23.2988 28.4271 24.2614 27.0682C25.9035 26.9266 27.4606 26.6718 28.9328 26.3604C29.1027 27.0116 29.2159 27.6344 29.3292 28.229ZM31.8772 23.8123C31.311 24.0388 30.6881 24.237 30.0653 24.4069C29.6123 22.9913 29.0461 21.4908 28.3666 19.9903C29.0461 18.4898 29.6406 17.0175 30.0653 15.602C33.9723 16.7344 36.3221 18.4331 36.3221 20.0186C36.3221 21.3492 34.6801 22.7648 31.8772 23.8123Z" fill="white"/>
</svg>
