<svg width="19" height="45" viewBox="0 0 19 45" fill="none" xmlns="http://www.w3.org/2000/svg">
<path d="M14.125 44.0156C9.03906 44.0156 5.14844 40.7578 6.10938 35.3438C6.57812 32.6484 8.03125 30.2109 8.03125 27.4688C8.03125 25.0078 3.34375 24.3047 0.765625 24.3047V20.6016C3.25 20.6016 8.03125 19.3125 8.03125 17.0156C8.03125 14.1562 6.57812 11.8359 6.10938 9.14062C5.17188 3.9375 9.03906 0.890625 14.125 0.890625C15.9531 0.890625 17.0781 1.07812 18.1094 1.35938L17.5469 5.4375C16.4453 5.29688 15.4141 5.20312 14.5469 5.20312C12.3203 5.20312 10.7031 6.65625 11.125 9.14062C11.5938 11.9062 13.1406 14.2031 13.1406 16.9219C13.1406 20.1562 10.5156 21.9844 6.0625 22.0547V22.8516C10.5156 22.9219 13.1406 24.7031 13.1406 27.5625C13.1406 30.3984 11.5938 32.6953 11.125 35.3438C10.6328 38.1094 12.3203 39.7031 14.5469 39.7031C15.4141 39.7031 16.4453 39.6094 17.5469 39.4688L18.1094 43.5469C17.0781 43.8281 15.9531 44.0156 14.125 44.0156Z" fill="white"/>
</svg>
