<svg width="18" height="45" viewBox="0 0 18 45" fill="none" xmlns="http://www.w3.org/2000/svg">
<path d="M4 44.0156C2.17188 44.0156 1.04688 43.8281 0.015625 43.5469L0.578125 39.4688C1.67969 39.6094 2.71094 39.7031 3.57812 39.7031C5.80469 39.7031 7.49219 38.1094 7 35.3438C6.53125 32.6953 4.98438 30.3984 4.98438 27.5625C4.98438 24.7031 7.60938 22.9219 12.0625 22.8516V22.0547C7.60938 21.9844 4.98438 20.1562 4.98438 16.9219C4.98438 14.2031 6.53125 11.9062 7 9.14062C7.42188 6.65625 5.80469 5.20312 3.57812 5.20312C2.71094 5.20312 1.67969 5.29688 0.578125 5.4375L0.015625 1.35938C1.04688 1.07812 2.17188 0.890625 4 0.890625C9.08594 0.890625 12.9531 3.9375 12.0156 9.14062C11.5469 11.8359 10.0938 14.1562 10.0938 17.0156C10.0938 19.3125 14.875 20.6016 17.3594 20.6016V24.3047C14.7812 24.3047 10.0938 25.0078 10.0938 27.4688C10.0938 30.2109 11.5469 32.6484 12.0156 35.3438C12.9766 40.7578 9.08594 44.0156 4 44.0156Z" fill="white"/>
</svg>
