<svg width="24" height="24" viewBox="0 0 24 24" fill="none" xmlns="http://www.w3.org/2000/svg">
<path d="M13 6C13 5.44771 12.5523 5 12 5C11.4477 5 11 5.44772 11 6L13 6ZM11.2929 20.7071C11.6834 21.0976 12.3166 21.0976 12.7071 20.7071L19.0711 14.3431C19.4616 13.9526 19.4616 13.3195 19.0711 12.9289C18.6805 12.5384 18.0474 12.5384 17.6569 12.9289L12 18.5858L6.34315 12.9289C5.95262 12.5384 5.31946 12.5384 4.92893 12.9289C4.53841 13.3195 4.53841 13.9526 4.92894 14.3431L11.2929 20.7071ZM11 6L11 20L13 20L13 6L11 6Z" fill="#9C9A9A"/>
</svg>
