<svg width="40" height="41" viewBox="0 0 40 41" fill="none" xmlns="http://www.w3.org/2000/svg">
<path d="M36 29.4965C34.8361 29.7994 34.1163 29.5096 33.4705 28.5174C32.0207 26.2954 30.4204 24.1752 28.8761 22.0158C28.677 21.7365 28.4703 21.4623 28.2125 21.115C26.3849 23.6373 24.5599 26.0395 22.8473 28.5383C22.2347 29.4313 21.5914 29.8203 20.448 29.5044L27.3191 20.0706L20.9227 11.5507C22.0228 11.3314 22.7834 11.4436 23.4573 12.4515C24.9454 14.6761 26.5866 16.7937 28.2227 19.034C29.869 16.8015 31.4898 14.6814 33.0213 12.4776C33.6364 11.5846 34.2975 11.2452 35.4027 11.5742C34.5655 12.71 33.7462 13.8275 32.9218 14.9372C31.8089 16.4334 30.7164 17.9478 29.5627 19.4126C29.1518 19.9348 29.2182 20.2743 29.5857 20.7678C31.7196 23.6373 33.8279 26.5356 36 29.4965ZM4.00766 19.9139C4.19143 18.9713 4.31395 18.0105 4.5692 17.0862C6.10066 11.4906 12.3797 9.16418 16.6933 12.6317C19.2202 14.6657 19.8481 17.5326 19.7231 20.7651H5.48042C5.26601 26.5643 9.34737 30.0658 14.5493 28.2798C16.3743 27.6531 17.4488 26.1909 17.9874 24.3632C18.2605 23.4467 18.7123 23.3031 19.5546 23.5642C19.1232 25.8515 18.1456 27.7628 16.1037 28.9587C13.0408 30.7499 8.66842 30.1702 6.36867 27.6819C5.01077 26.2197 4.43392 24.3997 4.17867 22.4336C4.14038 22.1203 4.06126 21.8122 4 21.5015C4.0051 20.9723 4.00766 20.4431 4.00766 19.9139ZM5.50594 19.5249H18.3779C18.2937 15.3315 15.7412 12.3523 12.2521 12.3262C8.42339 12.2948 5.67185 15.2036 5.50594 19.5249Z" fill="white"/>
</svg>
