<svg width="42" height="42" viewBox="0 0 42 42" fill="#ffffff" xmlns="http://www.w3.org/2000/svg">
<path d="M29.3333 16C29.3333 15.0833 28.5833 14.3333 27.6667 14.3333H14.3333C13.4167 14.3333 12.6667 15.0833 12.6667 16M29.3333 16V26C29.3333 26.9167 28.5833 27.6667 27.6667 27.6667H14.3333C13.4167 27.6667 12.6667 26.9167 12.6667 26V16M29.3333 16L21 21.8333L12.6667 16M41 21C41 32.0457 32.0457 41 21 41C9.9543 41 1 32.0457 1 21C1 9.9543 9.9543 1 21 1C32.0457 1 41 9.9543 41 21Z" stroke="#1E1E1E" stroke-width="2" stroke-linecap="round" stroke-linejoin="round"/>
</svg>
