<svg width="40" height="41" viewBox="0 0 40 41" fill="#999999" xmlns="http://www.w3.org/2000/svg">
<path fill-rule="evenodd" clip-rule="evenodd" d="M27.512 13.8788C28.0136 15.3297 28.3748 16.811 28.4936 18.3463C28.6411 20.251 28.5736 22.1422 28.172 24.0157C28.1611 24.0672 28.1379 24.1157 28.1207 24.1657C27.9948 24.166 27.8664 24.1503 27.7432 24.1694C26.7029 24.3328 25.6636 24.5022 24.6242 24.6707C23.5498 24.8447 22.4739 25.0119 21.4014 25.1978C21.0214 25.2635 20.5511 25.185 20.3976 25.7107C20.3932 25.725 20.3495 25.7275 20.3242 25.7357L20.3761 22.5947L20.3232 15.016L20.8239 14.93C21.6426 14.796 22.4614 14.66 23.2807 14.5297C24.2586 14.3744 25.2373 14.2235 26.2157 14.0719C26.6473 14.0047 27.0795 13.9432 27.512 13.8788Z" fill="white"/>
<path fill-rule="evenodd" clip-rule="evenodd" d="M19.2904 34.8919C18.7622 34.4378 18.2157 34.0038 17.7094 33.5263C14.9854 30.9569 12.9929 27.9328 12.0116 24.2869C11.7413 23.2834 11.561 22.2638 11.5032 21.2269C11.4626 20.5013 11.4038 19.7691 11.455 19.0472C11.5916 17.1272 11.8691 15.2256 12.4322 13.3763L12.4632 13.3331C12.5179 13.4059 12.5966 13.4703 12.6244 13.5525C13.1741 15.1713 13.7197 16.7913 14.2626 18.4122C15.9682 23.5059 17.6716 28.6009 19.3801 33.6934C19.4135 33.7928 19.5001 33.8744 19.5622 33.9641L19.2904 34.8919Z" fill="white"/>
<path fill-rule="evenodd" clip-rule="evenodd" d="M27.5118 13.8788C27.0793 13.9432 26.6468 14.0047 26.2153 14.0713C25.2368 14.2229 24.2581 14.3738 23.2803 14.5291C22.4609 14.6594 21.6421 14.7954 20.8234 14.9294L20.3228 15.0154L20.319 14.6888C20.3024 14.4204 20.274 14.1522 20.2709 13.8838C20.2493 12.1719 20.2359 10.46 20.2146 8.74817C20.2015 7.67661 20.1818 6.60536 20.1599 5.53411C20.1465 4.86848 20.1321 4.20254 20.1021 3.53786C20.0859 3.18067 20.0284 2.82536 20.0049 2.46817C19.9918 2.26286 20.0099 2.05598 20.014 1.84973C20.2693 2.34442 20.519 2.84286 20.7815 3.33379C21.1962 4.11004 21.8568 4.68192 22.4515 5.30598C24.8024 7.77223 26.4715 10.6397 27.5118 13.8788Z" fill="white"/>
<path fill-rule="evenodd" clip-rule="evenodd" d="M20.3237 25.7353C20.349 25.7272 20.3931 25.7247 20.3971 25.7103C20.5506 25.1847 21.0209 25.2631 21.4009 25.1975C22.4734 25.0119 23.5493 24.8444 24.6237 24.6703C25.6631 24.5019 26.7025 24.3325 27.7428 24.169C27.8659 24.1497 27.9943 24.1656 28.1203 24.1653C27.9259 24.859 27.7728 25.5678 27.5262 26.2425C27.2462 27.0078 26.9075 27.7547 26.5478 28.4869C26.0093 29.5789 25.3428 30.6031 24.5625 31.5378C23.9628 32.259 23.2943 32.9256 22.6243 33.584C22.254 33.9481 21.8175 34.2447 21.4112 34.5719L21.3059 34.5L20.9265 34.1756L20.534 33.3153C20.2659 32.3117 20.1197 31.2795 20.0984 30.2409L20.1056 30.0656L20.159 29.3075C20.1768 29.0487 20.2006 28.7903 20.2115 28.5309C20.2518 27.599 20.2868 26.6672 20.3237 25.7353Z" fill="white"/>
<path fill-rule="evenodd" clip-rule="evenodd" d="M20.3237 25.7353C20.2868 26.6671 20.2518 27.599 20.2122 28.5312C20.2012 28.7906 20.1775 29.049 20.1597 29.3078L19.9206 29.3981C19.3897 27.8349 18.8584 26.2884 18.3387 24.7378C17.4793 22.1724 16.6303 19.6031 15.7722 17.0371C15.0791 14.966 14.3811 12.8965 13.6784 10.8287C13.6456 10.7318 13.5512 10.6562 13.4856 10.5706L15.0156 7.75745C15.0681 7.8487 15.1375 7.93401 15.1706 8.03213C15.8792 10.1265 16.5842 12.2222 17.2856 14.319C18.1968 17.0471 19.1025 19.7774 20.0131 22.5059C20.0493 22.6149 20.1093 22.7156 20.1665 22.8378L20.3759 22.594L20.3237 25.7353Z" fill="white"/>
<path fill-rule="evenodd" clip-rule="evenodd" d="M13.4859 10.5709C13.5515 10.6565 13.6456 10.7322 13.6787 10.829C14.3814 12.8969 15.0793 14.9664 15.7724 17.0375C16.6306 19.6034 17.4796 22.1728 18.339 24.7381C18.8584 26.2884 19.3896 27.8353 19.9209 29.3984L20.1599 29.3081L20.1065 30.0662L20.0581 30.2409C19.9749 31.0709 19.9049 31.9028 19.8037 32.7309C19.7528 33.1459 19.6446 33.5534 19.5624 33.9644C19.5006 33.8747 19.4137 33.7931 19.3803 33.6937C17.6718 28.6009 15.9684 23.5062 14.2628 18.4125C13.7201 16.7914 13.1741 15.1715 12.6246 13.5528C12.5968 13.4706 12.5184 13.4062 12.4634 13.3334L13.4859 10.5709Z" fill="white"/>
<path fill-rule="evenodd" clip-rule="evenodd" d="M20.3757 22.5944L20.1663 22.8382C20.1091 22.716 20.0491 22.615 20.0129 22.5063C19.1026 19.7779 18.1966 17.0476 17.2854 14.3194C16.584 12.2226 15.879 10.127 15.1704 8.03255C15.1376 7.93442 15.0682 7.8488 15.0154 7.75786L16.9076 5.2688C16.9673 5.34849 17.0523 5.41942 17.0832 5.50911C17.6085 7.04692 18.1291 8.58661 18.6466 10.1272C19.1301 11.566 19.6063 13.0069 20.0954 14.4438C20.1282 14.54 20.2423 14.6082 20.3185 14.6894L20.3223 15.016C20.3404 17.5416 20.3582 20.0682 20.3757 22.5944Z" fill="white"/>
<path fill-rule="evenodd" clip-rule="evenodd" d="M20.3191 14.6888C20.2429 14.6075 20.1288 14.5394 20.096 14.4432C19.607 13.0063 19.1307 11.5653 18.6473 10.1266C18.1298 8.58597 17.6091 7.0466 17.0838 5.50847C17.0529 5.41878 16.9679 5.34785 16.9082 5.26816C17.5235 4.66566 18.1198 4.0416 18.7598 3.46691C19.3288 2.95628 19.7863 2.40878 19.8073 1.60191C19.8082 1.56847 19.8257 1.53503 19.8526 1.44128L20.0148 1.84941C20.0107 2.05597 19.9923 2.26253 20.0057 2.46785C20.0291 2.82503 20.0866 3.18035 20.1029 3.53753C20.1329 4.20222 20.1473 4.86816 20.1607 5.53378C20.1823 6.60503 20.202 7.67628 20.2154 8.74785C20.2363 10.4597 20.2501 12.1716 20.2716 13.8835C20.2741 14.1525 20.3023 14.4203 20.3191 14.6888Z" fill="white"/>
<path fill-rule="evenodd" clip-rule="evenodd" d="M19.5619 33.9641C19.6441 33.5532 19.7522 33.1454 19.8032 32.7307C19.9047 31.9029 19.9744 31.0707 20.0575 30.2407L20.0782 30.2375L20.0988 30.241C20.1201 31.2795 20.2663 32.3118 20.5344 33.3154C20.4794 33.3879 20.4016 33.4525 20.3725 33.5344C20.1454 34.175 19.9313 34.8207 19.7029 35.4613C19.6716 35.5488 19.5847 35.6169 19.5235 35.6938L19.29 34.8919L19.5619 33.9641Z" fill="white"/>
<path fill-rule="evenodd" clip-rule="evenodd" d="M19.5237 35.6941C19.5849 35.6172 19.6721 35.5491 19.7031 35.4616C19.9315 34.821 20.1459 34.1757 20.3727 33.5347C20.4018 33.4529 20.4793 33.3882 20.5346 33.3157L20.9268 34.1763C20.8493 34.2863 20.7424 34.3854 20.6993 34.5079L19.9481 36.7138C19.9171 36.8022 19.8115 36.8647 19.7409 36.9394L19.5237 35.6941Z" fill="white"/>
<path fill-rule="evenodd" clip-rule="evenodd" d="M19.741 36.939C19.8119 36.8647 19.9172 36.8018 19.9482 36.7134L20.6994 34.5075C20.7422 34.3853 20.8494 34.2859 20.9269 34.1759L21.3066 34.5C21.1232 34.6812 21.0213 34.8906 21.0825 35.1553L20.9672 35.5328C20.9147 35.5975 20.8388 35.6537 20.8128 35.7278C20.5507 36.4787 20.3003 37.2337 20.0363 37.9847C20.0028 38.08 19.91 38.1547 19.8444 38.2384C19.8103 37.805 19.7757 37.3725 19.741 36.939Z" fill="#C2C1A7"/>
<path fill-rule="evenodd" clip-rule="evenodd" d="M19.8446 38.2385C19.9099 38.1544 20.0027 38.0797 20.0365 37.9847C20.3006 37.2341 20.5509 36.4791 20.8131 35.7278C20.839 35.6541 20.9146 35.5975 20.9674 35.5328L20.8084 37.2656C20.7659 37.3147 20.7043 37.3575 20.684 37.4147C20.5043 37.9191 20.3349 38.4272 20.1546 38.9316C20.1174 39.0356 20.0462 39.1275 19.9906 39.2247C19.9412 39.16 19.8527 39.0975 19.8487 39.03C19.8327 38.7672 19.8437 38.5025 19.8446 38.2385Z" fill="white"/>
<path fill-rule="evenodd" clip-rule="evenodd" d="M19.9902 39.2247C20.0459 39.1272 20.1171 39.0353 20.1543 38.9316C20.3349 38.4275 20.504 37.9194 20.6837 37.4147C20.704 37.3575 20.7659 37.315 20.808 37.2656L20.8118 38.4031L20.4312 39.3794L19.9902 39.2247Z" fill="#DBDAC7"/>
<path fill-rule="evenodd" clip-rule="evenodd" d="M20.4312 39.3797L20.8118 38.4034L20.8902 39.5584L20.4312 39.3797Z" fill="#EBE9DC"/>
<path fill-rule="evenodd" clip-rule="evenodd" d="M21.0826 35.1557C21.0213 34.891 21.1229 34.6813 21.3066 34.5004L21.4119 34.5722L21.0826 35.1557Z" fill="white"/>
<path fill-rule="evenodd" clip-rule="evenodd" d="M20.0989 30.2413L20.0782 30.2378L20.0576 30.241L20.1061 30.0663L20.0989 30.2413Z" fill="white"/>
</svg>
