<svg width="40" height="41" viewBox="0 0 40 41" fill="none" xmlns="http://www.w3.org/2000/svg">
<path d="M35.2409 9.97926L21.4606 1.9777C20.5916 1.4827 19.46 1.4827 18.5841 1.9777L4.65656 9.97926C3.75969 10.4952 3.125 11.4649 3.125 12.5021V28.4839C3.125 29.5211 3.77625 30.4911 4.67313 31.0099L8.35281 33.0999C10.1116 33.9661 10.7331 33.9661 11.5334 33.9661C14.1375 33.9661 15.625 32.3914 15.625 29.6449V13.8668C15.625 13.6439 15.5091 13.3124 15.2903 13.3124H13.5331C13.3106 13.3124 12.8125 13.6439 12.8125 13.8664V29.6446C12.8125 30.8621 11.7112 32.0736 9.65312 31.0446L5.85094 28.853C5.71844 28.7811 5.625 28.6364 5.625 28.4839V12.5021C5.625 12.3514 5.79844 12.2002 5.93188 12.123L19.8144 4.1352C19.9441 4.06176 20.1347 4.06176 20.2641 4.1352L33.9772 12.1211C34.1084 12.2002 34.0622 12.3468 34.0622 12.5021V28.4839C34.0622 28.6364 34.1194 28.7849 33.9897 28.8583L20.2128 36.8508C20.0947 36.9218 19.9481 36.9218 19.8187 36.8508L16.2853 34.7418C16.1788 34.6799 16.0522 34.6577 15.95 34.7149C14.9669 35.2721 14.7856 35.3461 13.8634 35.6658C13.6366 35.7449 13.3019 35.8821 13.9916 36.2686L18.6159 39.0043C19.0574 39.2593 19.5583 39.3936 20.0681 39.3936C20.5813 39.3936 21.0837 39.2605 21.5266 39.0043L35.2406 31.0099C36.1375 30.4874 36.5625 29.5211 36.5625 28.4839V12.5021C36.5625 11.4649 36.1375 10.4977 35.2409 9.97926ZM24.3469 25.9514C20.6825 25.9514 19.8753 24.9405 19.6063 23.1183C19.575 22.9221 19.4084 22.6874 19.2087 22.6874H17.4178C17.1962 22.6874 17.0181 22.9561 17.0181 23.1768C17.0181 25.5099 18.2866 28.3368 24.3472 28.3368C28.7344 28.3368 31.2497 26.6321 31.2497 23.6152C31.2497 20.6239 29.2288 19.8389 24.9741 19.2758C20.6734 18.7074 20.2366 18.4202 20.2366 17.4127C20.2366 16.5821 20.6066 15.4743 23.7909 15.4743C26.6362 15.4743 27.685 16.0849 28.1166 18.0027C28.1534 18.183 28.3181 18.3124 28.5041 18.3124H30.3022C30.4128 18.3124 30.5184 18.2677 30.5959 18.1886C30.6709 18.1036 30.7106 17.9971 30.7006 17.8827C30.4222 14.5802 28.2281 13.0411 23.7906 13.0411C19.8434 13.0411 17.4888 14.708 17.4888 17.5021C17.4888 20.5327 19.8316 21.3702 23.6206 21.7449C28.1534 22.1893 28.5059 22.8518 28.5059 23.7433C28.5059 25.2918 27.2628 25.9514 24.3469 25.9514Z" fill="white"/>
</svg>
