<svg width="40" height="41" viewBox="0 0 40 41" fill="none" xmlns="http://www.w3.org/2000/svg">
<g clip-path="url(#clip0_74_129)">
<path d="M20.0012 8.50061C14.6678 8.50061 11.3356 11.1662 10.0012 16.4997C12.0006 13.8337 14.3347 12.834 17.0006 13.5006C18.5228 13.88 19.6106 14.9837 20.8153 16.2069C22.7759 18.1965 25.0453 20.5 30.0012 20.5C35.3343 20.5 38.6668 17.834 40.0012 12.4994C38.0015 15.1669 35.6678 16.1665 33.0015 15.5C31.4797 15.1203 30.3931 14.0169 29.1868 12.7937C27.2275 10.804 24.9587 8.50061 20.0012 8.50061ZM10.0012 20.5C4.6681 20.5 1.3356 23.1659 0.0012207 28.5006C2.0006 25.8331 4.33435 24.8334 7.0006 25.5C8.52278 25.8797 9.6106 26.9831 10.8153 28.2062C12.7759 30.1959 15.0453 32.4994 20.0012 32.4994C25.3343 32.4994 28.6668 29.8337 30.0012 24.5003C28.0015 27.1662 25.6678 28.1659 23.0015 27.4994C21.4797 27.12 20.3931 26.0162 19.1868 24.7931C17.2275 22.8034 14.9587 20.5 10.0012 20.5Z" fill="white"/>
</g>
<defs>
<clipPath id="clip0_74_129">
<rect width="40" height="40" fill="white" transform="translate(0 0.5)"/>
</clipPath>
</defs>
</svg>
