<svg width="360" height="106" viewBox="0 0 360 106" fill="none" xmlns="http://www.w3.org/2000/svg">
<mask id="path-1-outside-1_43_13" maskUnits="userSpaceOnUse" x="-88" y="0" width="486" height="116" fill="white">
<rect fill="white" x="-88" width="486" height="116"/>
<path fill-rule="evenodd" clip-rule="evenodd" d="M-78 65.3885L-77.9999 106H151.622H387.73V38.107C383.241 36.9428 378.583 35.2723 376.82 33.2338C373.935 29.8975 367.502 31.3382 364.647 32.4756C364.196 30.5799 359.236 21.1015 354.727 22.6181C351.12 23.8313 347.213 21.3532 345.71 19.9625C339.578 12.9852 327.525 12.7584 322.264 13.5172C300.622 7.14718 288.9 10.863 285.744 13.5172C284.391 12.3798 281.235 10.7116 279.431 13.1381C277.177 16.1712 266.807 21.8582 265.454 19.9625C264.102 18.0668 262.749 17.6877 256.888 19.205C255.553 19.205 252.181 18.1669 248.12 16.9165C241.206 14.7876 232.292 12.0431 228.032 12.7597C222.621 13.6696 218.563 21.9853 217.211 26.0294C217.361 25.3976 216.67 23.9065 212.702 22.9966C208.505 22.0341 208.505 32.4739 208.605 34.789C208.299 33.4991 206.285 32.8541 205.037 32.8541C201.881 34.3707 194.937 37.7829 192.413 39.2994C189.888 40.816 184.447 37.151 182.042 35.1289C175.73 37.7829 148.227 44.6073 144.62 43.0908C142.188 42.0682 136.681 42.4246 131.417 42.7652C128.874 42.9298 126.387 43.0908 124.331 43.0908C119.281 43.0908 100.284 44.8601 91.4167 45.7447C77.3595 29.6557 51.8045 41.4343 44.3317 44.8786C43.1758 45.4114 42.4526 45.7447 42.2714 45.7447C41.9729 45.7447 41.7403 45.5231 41.3991 45.1982C40.1942 44.0506 37.6353 41.6134 26.0399 43.0908C12.7017 44.7901 13.4946 49.2317 13.8018 50.9527C13.8373 51.1515 13.8663 51.314 13.8663 51.4317C13.8663 52.3417 10.5599 51.8109 8.90668 51.4317C-14.8705 55.5768 -32.3072 54.0767 -42.684 53.184C-48.4424 52.6886 -52.0267 52.3803 -53.314 53.3274C-56.1996 55.4506 -65.6379 60.7837 -69.9963 63.1849C-72.5505 64.5944 -75.2601 65.2553 -78 65.3885ZM208.644 35.1289C208.644 35.3622 208.623 35.2098 208.605 34.789C208.63 34.8977 208.644 35.011 208.644 35.1289Z"/>
</mask>
<path fill-rule="evenodd" clip-rule="evenodd" d="M-78 65.3885L-77.9999 106H151.622H387.73V38.107C383.241 36.9428 378.583 35.2723 376.82 33.2338C373.935 29.8975 367.502 31.3382 364.647 32.4756C364.196 30.5799 359.236 21.1015 354.727 22.6181C351.12 23.8313 347.213 21.3532 345.71 19.9625C339.578 12.9852 327.525 12.7584 322.264 13.5172C300.622 7.14718 288.9 10.863 285.744 13.5172C284.391 12.3798 281.235 10.7116 279.431 13.1381C277.177 16.1712 266.807 21.8582 265.454 19.9625C264.102 18.0668 262.749 17.6877 256.888 19.205C255.553 19.205 252.181 18.1669 248.12 16.9165C241.206 14.7876 232.292 12.0431 228.032 12.7597C222.621 13.6696 218.563 21.9853 217.211 26.0294C217.361 25.3976 216.67 23.9065 212.702 22.9966C208.505 22.0341 208.505 32.4739 208.605 34.789C208.299 33.4991 206.285 32.8541 205.037 32.8541C201.881 34.3707 194.937 37.7829 192.413 39.2994C189.888 40.816 184.447 37.151 182.042 35.1289C175.73 37.7829 148.227 44.6073 144.62 43.0908C142.188 42.0682 136.681 42.4246 131.417 42.7652C128.874 42.9298 126.387 43.0908 124.331 43.0908C119.281 43.0908 100.284 44.8601 91.4167 45.7447C77.3595 29.6557 51.8045 41.4343 44.3317 44.8786C43.1758 45.4114 42.4526 45.7447 42.2714 45.7447C41.9729 45.7447 41.7403 45.5231 41.3991 45.1982C40.1942 44.0506 37.6353 41.6134 26.0399 43.0908C12.7017 44.7901 13.4946 49.2317 13.8018 50.9527C13.8373 51.1515 13.8663 51.314 13.8663 51.4317C13.8663 52.3417 10.5599 51.8109 8.90668 51.4317C-14.8705 55.5768 -32.3072 54.0767 -42.684 53.184C-48.4424 52.6886 -52.0267 52.3803 -53.314 53.3274C-56.1996 55.4506 -65.6379 60.7837 -69.9963 63.1849C-72.5505 64.5944 -75.2601 65.2553 -78 65.3885ZM208.644 35.1289C208.644 35.3622 208.623 35.2098 208.605 34.789C208.63 34.8977 208.644 35.011 208.644 35.1289Z" fill="#181818"/>
<path d="M-77.9999 106L-87.9999 106L-87.9999 116H-77.9999V106ZM-78 65.3885L-78.4857 55.4003L-88 55.863L-88 65.3885L-78 65.3885ZM387.73 106V116H397.73V106H387.73ZM387.73 38.107H397.73V30.3697L390.24 28.4272L387.73 38.107ZM376.82 33.2338L384.384 26.6923L384.384 26.6922L376.82 33.2338ZM364.647 32.4756L354.918 34.7896L357.596 46.0481L368.347 41.7657L364.647 32.4756ZM354.727 22.6181L351.539 13.1399L351.539 13.1399L354.727 22.6181ZM345.71 19.9625L338.198 26.5638L338.539 26.9517L338.918 27.3023L345.71 19.9625ZM322.264 13.5172L319.441 23.1103L321.533 23.7262L323.692 23.4148L322.264 13.5172ZM285.744 13.5172L279.308 21.1709L285.744 26.583L292.18 21.1707L285.744 13.5172ZM279.431 13.1381L287.457 19.1035L287.457 19.1034L279.431 13.1381ZM265.454 19.9625L257.314 25.7709L257.314 25.7709L265.454 19.9625ZM256.888 19.205V29.205H258.161L259.394 28.8859L256.888 19.205ZM248.12 16.9165L245.178 26.4738L245.178 26.4738L248.12 16.9165ZM228.032 12.7597L229.69 22.6212L229.69 22.6212L228.032 12.7597ZM217.211 26.0294L207.482 23.7151L226.694 29.2014L217.211 26.0294ZM212.702 22.9966L210.467 32.7436L210.467 32.7436L212.702 22.9966ZM205.037 32.8541V22.8541H202.759L200.706 23.8407L205.037 32.8541ZM192.413 39.2994L187.264 30.7269L187.264 30.7269L192.413 39.2994ZM182.042 35.1289L188.478 27.4752L183.801 23.5418L178.167 25.9106L182.042 35.1289ZM144.62 43.0908L148.496 33.8724L148.496 33.8724L144.62 43.0908ZM131.417 42.7652L130.771 32.7861L130.771 32.7861L131.417 42.7652ZM91.4167 45.7447L83.8861 52.3243L87.2787 56.2072L92.4095 55.6953L91.4167 45.7447ZM44.3317 44.8786L48.5176 53.9604L48.5176 53.9604L44.3317 44.8786ZM41.3991 45.1982L48.2959 37.9571L48.2959 37.957L41.3991 45.1982ZM26.0399 43.0908L24.776 33.1709L24.776 33.1709L26.0399 43.0908ZM13.8018 50.9527L23.6462 49.1955L23.6462 49.1953L13.8018 50.9527ZM8.90668 51.4317L11.1419 41.6848L9.17614 41.2339L7.18928 41.5803L8.90668 51.4317ZM-42.684 53.184L-41.8269 43.2208L-42.684 53.184ZM-53.314 53.3274L-47.3876 61.3821L-47.3876 61.3821L-53.314 53.3274ZM-69.9963 63.1849L-74.8218 54.4262L-74.8278 54.4295L-69.9963 63.1849ZM-67.9999 106L-68 65.3885L-88 65.3885L-87.9999 106L-67.9999 106ZM151.622 96H-77.9999V116H151.622V96ZM387.73 96H151.622V116H387.73V96ZM377.73 38.107V106H397.73V38.107H377.73ZM390.24 28.4272C388.25 27.9111 386.467 27.3425 385.128 26.7796C384.464 26.5004 384.056 26.2838 383.854 26.1599C383.598 26.0035 383.909 26.143 384.384 26.6923L369.257 39.7754C371.733 42.6388 375.178 44.2923 377.378 45.217C379.931 46.29 382.721 47.1386 385.219 47.7867L390.24 28.4272ZM384.384 26.6922C379.953 21.5695 373.743 21.0595 370.356 21.1838C366.637 21.3201 363.178 22.2966 360.946 23.1854L368.347 41.7657C368.577 41.6741 369.03 41.5199 369.602 41.3876C370.175 41.2551 370.693 41.1848 371.089 41.1703C371.517 41.1546 371.522 41.2141 371.226 41.1254C370.87 41.0184 370.031 40.6703 369.257 39.7755L384.384 26.6922ZM374.375 30.1616C373.952 28.3829 373.042 26.4979 372.379 25.2447C371.573 23.7214 370.474 21.9107 369.134 20.1688C367.867 18.522 365.983 16.4077 363.491 14.8191C360.957 13.2041 356.591 11.4406 351.539 13.1399L357.915 32.0963C356.634 32.5272 355.391 32.5257 354.4 32.3203C353.489 32.1316 352.928 31.8035 352.741 31.6847C352.547 31.5607 352.534 31.5198 352.685 31.6694C352.825 31.8086 353.03 32.0366 353.283 32.3657C353.803 33.0407 354.311 33.8603 354.702 34.6C354.892 34.9596 355.019 35.2321 355.085 35.385C355.117 35.4609 355.118 35.4693 355.099 35.4157C355.09 35.3921 355.006 35.1611 354.918 34.7896L374.375 30.1616ZM351.539 13.1399C352.158 12.9317 352.665 12.9285 352.934 12.9535C353.177 12.9761 353.242 13.0211 353.121 12.973C353.007 12.9276 352.841 12.8442 352.666 12.731C352.479 12.6107 352.418 12.5458 352.502 12.6227L338.918 27.3023C340.467 28.7353 342.849 30.4131 345.738 31.5605C348.605 32.6992 353.062 33.7287 357.915 32.0963L351.539 13.1399ZM353.221 13.3612C348.079 7.50951 341.034 5.04962 335.507 4.01089C329.87 2.95134 324.427 3.10171 320.837 3.61968L323.692 23.4148C325.362 23.174 328.576 23.0583 331.813 23.6667C335.161 24.296 337.209 25.4382 338.198 26.5638L353.221 13.3612ZM325.088 3.92415C313.312 0.457953 303.744 -0.410406 296.304 0.162676C289.248 0.706105 283.143 2.63826 279.307 5.86381L292.18 21.1707C291.5 21.742 292.834 20.4892 297.84 20.1036C302.46 19.7477 309.575 20.2065 319.441 23.1103L325.088 3.92415ZM292.179 5.86352C290.713 4.63016 288.141 2.92436 284.87 2.2171C281.073 1.39616 275.311 1.91798 271.405 7.17276L287.457 19.1034C286.66 20.1758 285.393 21.1439 283.798 21.6109C282.356 22.0331 281.202 21.8863 280.643 21.7653C280.083 21.6442 279.764 21.4767 279.679 21.4308C279.581 21.3779 279.473 21.31 279.308 21.1709L292.179 5.86352ZM271.406 7.17273C271.702 6.7736 271.859 6.67359 271.63 6.87544C271.451 7.03323 271.143 7.28026 270.699 7.5959C269.802 8.23199 268.663 8.92421 267.534 9.50423C266.322 10.1269 265.558 10.3964 265.356 10.4493C265.198 10.4908 265.792 10.2997 266.829 10.3494C267.646 10.3885 271.141 10.7159 273.594 14.1542L257.314 25.7709C260.106 29.683 264.221 30.2474 265.872 30.3265C267.744 30.4161 269.388 30.0681 270.428 29.7956C272.621 29.2206 274.844 28.2342 276.675 27.2929C278.59 26.309 280.55 25.1293 282.275 23.9052C283.77 22.8441 285.915 21.178 287.457 19.1035L271.406 7.17273ZM273.594 14.1542C272.927 13.2191 271.786 11.7842 270 10.5671C268.085 9.262 266.018 8.60009 264 8.36891C260.683 7.98875 257.195 8.79592 254.382 9.52409L259.394 28.8859C260.714 28.5441 261.526 28.377 262.016 28.3025C262.54 28.2225 262.329 28.3083 261.723 28.2389C260.946 28.1498 259.837 27.8433 258.738 27.095C258.249 26.7618 257.893 26.4284 257.659 26.1805C257.437 25.9447 257.319 25.7785 257.314 25.7709L273.594 14.1542ZM256.888 9.20499C257.601 9.20499 257.948 9.31232 257.544 9.22895C257.274 9.17343 256.831 9.06655 256.169 8.88525C254.836 8.5197 253.145 8.0002 251.063 7.3593L245.178 26.4738C247.157 27.0833 249.183 27.708 250.883 28.1741C252.129 28.5155 254.635 29.205 256.888 29.205V9.20499ZM251.063 7.35931C247.672 6.31526 243.395 4.99437 239.396 4.04268C235.901 3.21109 230.753 2.16151 226.373 2.89819L229.69 22.6212C229.364 22.6761 229.614 22.5899 230.775 22.7327C231.815 22.8606 233.152 23.1153 234.766 23.4994C238.017 24.273 241.654 25.3888 245.178 26.4738L251.063 7.35931ZM226.373 2.89819C219.446 4.06327 215.044 9.38344 212.866 12.5439C210.366 16.1705 208.634 20.1471 207.727 22.8574L226.694 29.2014C227.14 27.8676 228.113 25.6643 229.333 23.8946C229.93 23.0281 230.401 22.5389 230.658 22.3238C230.925 22.1014 230.602 22.4679 229.69 22.6212L226.373 2.89819ZM226.939 28.3438C228.205 23.0229 225.253 18.9769 223.064 17.0727C220.708 15.0231 217.787 13.9032 214.937 13.2497L210.467 32.7436C211.584 33 210.993 33.0806 209.937 32.1619C209.048 31.3887 206.367 28.4041 207.482 23.7151L226.939 28.3438ZM214.937 13.2497C212.336 12.6532 209.508 12.8747 206.896 14.1624C204.464 15.3611 202.907 17.1409 201.966 18.546C200.22 21.1561 199.534 24.0794 199.208 25.8514C198.497 29.7095 198.551 33.7599 198.614 35.2177L218.595 34.3603C218.559 33.5031 218.563 31.176 218.877 29.476C218.945 29.1063 219.002 28.9172 219.015 28.8759C219.041 28.7997 218.942 29.1397 218.588 29.6692C218.236 30.1947 217.367 31.2988 215.738 32.1016C213.928 32.9936 212.018 33.0994 210.467 32.7436L214.937 13.2497ZM218.335 32.4832C217.118 27.3446 213.055 25.0394 211.369 24.2604C209.339 23.3222 207.09 22.8541 205.037 22.8541V42.8541C204.231 42.8541 203.613 42.7086 202.979 42.4153C202.615 42.2471 201.917 41.8771 201.16 41.148C200.374 40.3922 199.339 39.0584 198.874 37.0948L218.335 32.4832ZM200.706 23.8407C197.704 25.2831 190.277 28.917 187.264 30.7269L197.562 47.872C199.598 46.6488 206.058 43.4582 209.368 41.8676L200.706 23.8407ZM187.264 30.7269C188.419 30.0328 189.521 29.7737 190.309 29.6919C191.068 29.6132 191.607 29.6889 191.831 29.729C192.215 29.7979 192.168 29.8514 191.623 29.5811C191.148 29.346 190.566 29.0002 189.949 28.5804C189.34 28.1657 188.819 27.762 188.478 27.4752L175.607 42.7826C177.22 44.1397 179.85 46.0681 182.742 47.5012C184.173 48.2103 186.111 49.0221 188.3 49.4148C190.373 49.7867 193.999 50.0116 197.562 47.8719L187.264 30.7269ZM178.167 25.9106C175.907 26.8608 168.234 29.0702 160.096 30.9234C156.164 31.8188 152.471 32.551 149.647 32.966C148.216 33.1763 147.203 33.2757 146.584 33.3017C146.273 33.3148 146.23 33.3014 146.377 33.3134C146.459 33.3201 146.673 33.3404 146.981 33.4016C147.267 33.4587 147.816 33.5866 148.496 33.8724L140.744 52.3091C142.408 53.0085 143.954 53.1823 144.753 53.2474C145.703 53.3248 146.627 53.3176 147.425 53.2841C149.025 53.2168 150.802 53.0111 152.555 52.7534C156.1 52.2325 160.353 51.377 164.537 50.4241C172.631 48.5808 181.866 46.051 185.918 44.3473L178.167 25.9106ZM148.496 33.8724C145.193 32.4836 141.305 32.4131 139.064 32.4168C136.348 32.4213 133.319 32.6212 130.771 32.7861L132.063 52.7444C134.779 52.5686 137.136 52.42 139.097 52.4168C140.061 52.4152 140.733 52.451 141.161 52.4988C141.692 52.5581 141.41 52.5891 140.744 52.3091L148.496 33.8724ZM130.771 32.7861C128.127 32.9572 125.995 33.0908 124.331 33.0908V53.0908C126.778 53.0908 129.62 52.9024 132.063 52.7444L130.771 32.7861ZM124.331 33.0908C118.645 33.0908 98.9863 34.9399 90.424 35.7941L92.4095 55.6953C101.582 54.7802 119.916 53.0908 124.331 53.0908V33.0908ZM98.9473 39.1652C88.6824 27.4166 74.5463 26.5012 63.9195 28.0976C53.2814 29.6957 43.8649 34.0827 40.1458 35.7969L48.5176 53.9604C52.2713 52.2302 59.3687 49.0057 66.8907 47.8757C74.4238 46.744 80.0938 47.9838 83.8861 52.3243L98.9473 39.1652ZM40.1458 35.7968C39.518 36.0862 39.1839 36.2394 38.9787 36.3278C38.8686 36.3753 38.9604 36.3321 39.1581 36.2618C39.2553 36.2273 39.5126 36.1377 39.867 36.0462C40.0499 35.9991 40.3298 35.9328 40.6783 35.8751C41.0024 35.8215 41.5644 35.7447 42.2714 35.7447V55.7447C43.5694 55.7447 44.573 55.487 44.8621 55.4124C45.2952 55.3007 45.6478 55.1809 45.8563 55.1068C46.2767 54.9574 46.6556 54.7976 46.8934 54.6951C47.3841 54.4837 47.9895 54.2038 48.5176 53.9604L40.1458 35.7968ZM42.2714 35.7447C44.8538 35.7447 46.6965 36.7827 47.5591 37.3823C47.9562 37.6583 48.2225 37.8944 48.2972 37.961C48.3661 38.0226 48.4102 38.066 48.2959 37.9571L34.5023 52.4393C34.5585 52.4929 34.7597 52.6858 34.9775 52.8803C35.2011 53.0799 35.6082 53.4323 36.1434 53.8043C37.2823 54.596 39.3905 55.7447 42.2714 55.7447V35.7447ZM48.2959 37.957C47.0086 36.731 44.5955 34.6137 40.0744 33.467C36.1446 32.4703 31.2166 32.3504 24.776 33.1709L27.3038 53.0106C32.4586 52.3538 34.6078 52.7138 35.1575 52.8532C35.3531 52.9028 35.187 52.884 34.8452 52.6717C34.5071 52.4618 34.2708 52.2189 34.5023 52.4393L48.2959 37.957ZM24.776 33.1709C17.5868 34.0869 11.4131 35.9766 7.48203 40.2025C2.59171 45.4595 3.71672 51.3615 3.95744 52.71L23.6462 49.1953C23.568 48.7574 23.7565 49.5373 23.6219 50.5524C23.4538 51.8188 22.8937 52.9991 22.1257 53.8247C21.4932 54.5046 21.1646 54.4628 22.0077 54.1427C22.8422 53.8257 24.4695 53.3717 27.3038 53.0106L24.776 33.1709ZM3.95741 52.7099C3.98307 52.8536 3.96789 52.7744 3.9519 52.6647C3.94155 52.5937 3.92224 52.4536 3.90492 52.269C3.88809 52.0896 3.8663 51.7976 3.8663 51.4317H23.8663C23.8663 50.6486 23.7774 50.0173 23.7428 49.7805C23.7035 49.5104 23.656 49.2505 23.6462 49.1955L3.95741 52.7099ZM3.8663 51.4317C3.8663 47.9595 5.66552 45.2845 7.63466 43.774C9.22354 42.5552 10.7336 42.1974 11.2198 42.0928C12.2727 41.8662 12.9289 41.9538 12.6473 41.9357C12.3601 41.9172 11.6984 41.8124 11.1419 41.6848L6.67142 61.1787C7.76813 61.4302 9.58627 61.7803 11.3656 61.8946C12.1173 61.9428 13.7034 62.0162 15.4278 61.6451C16.2499 61.4682 18.0312 61.0055 19.8073 59.643C21.9638 57.9889 23.8663 55.1315 23.8663 51.4317H3.8663ZM7.18928 41.5803C-15.2924 45.4996 -31.696 44.0924 -41.8269 43.2208L-43.5412 63.1472C-32.9185 64.0611 -14.4485 65.6541 10.6241 61.2832L7.18928 41.5803ZM-41.8269 43.2208C-44.5518 42.9864 -47.3236 42.7414 -49.5596 42.7154C-50.6961 42.7022 -52.082 42.7359 -53.4905 42.9599C-54.7646 43.1625 -57.0538 43.6639 -59.2404 45.2728L-47.3876 61.3821C-48.2111 61.988 -48.9582 62.3061 -49.4244 62.469C-49.893 62.6328 -50.2303 62.6928 -50.3491 62.7116C-50.5435 62.7426 -50.432 62.7067 -49.7917 62.7141C-49.1975 62.721 -48.3987 62.7603 -47.3099 62.8385C-46.2283 62.9162 -45 63.0217 -43.5412 63.1472L-41.8269 43.2208ZM-59.2404 45.2728C-61.467 46.9111 -70.1925 51.8758 -74.8218 54.4262L-65.1709 71.9436C-61.0833 69.6917 -50.9321 63.9901 -47.3876 61.3821L-59.2404 45.2728ZM-74.8278 54.4295C-75.8708 55.0051 -77.0556 55.3308 -78.4857 55.4003L-77.5143 75.3767C-73.4645 75.1798 -69.2302 74.1837 -65.1648 71.9403L-74.8278 54.4295ZM198.644 35.1289C198.644 35.0982 198.644 34.9905 198.649 34.8419C198.652 34.7689 198.658 34.6299 198.671 34.4533C198.68 34.3481 198.712 33.9097 198.818 33.3557C198.861 33.1302 198.999 32.4294 199.332 31.5811C199.495 31.1664 199.852 30.3297 200.519 29.4013C201.109 28.5809 202.641 26.7035 205.455 25.7585C208.813 24.6307 211.933 25.4851 213.998 26.7958C215.716 27.8866 216.65 29.218 217.013 29.7739C217.773 30.9394 218.098 31.9908 218.167 32.2086C218.384 32.8912 218.475 33.4462 218.491 33.5404C218.526 33.7414 218.546 33.9 218.556 33.9799C218.604 34.3663 218.606 34.5962 218.595 34.36L198.614 35.218C198.622 35.4026 198.644 35.9191 198.706 36.4285C198.718 36.5238 198.74 36.6953 198.777 36.9065C198.794 37.0109 198.887 37.5735 199.105 38.261C199.175 38.4813 199.501 39.5345 200.262 40.7011C200.625 41.2576 201.56 42.5894 203.278 43.6804C205.343 44.9914 208.464 45.8458 211.822 44.7178C214.636 43.7728 216.169 41.895 216.759 41.0742C217.427 40.1454 217.784 39.308 217.947 38.8925C218.281 38.0426 218.419 37.3396 218.463 37.111C218.57 36.5511 218.604 36.1039 218.613 35.9872C218.627 35.799 218.634 35.6455 218.637 35.5552C218.643 35.3719 218.644 35.218 218.644 35.1289H198.644ZM198.874 37.0942C198.721 36.4501 198.644 35.7899 198.644 35.1289H218.644C218.644 34.2322 218.539 33.3454 218.335 32.4839L198.874 37.0942Z" fill="white" mask="url(#path-1-outside-1_43_13)"/>
</svg>
