<svg width="40" height="41" viewBox="0 0 40 41" fill="none" xmlns="http://www.w3.org/2000/svg">
<g clip-path="url(#clip0_72_44)">
<path d="M7.08437 15.1875H38.2312V38.2094H7.08437V15.1875Z" fill="black"/>
<path d="M0.46875 40.0032H39.5312V0.940674H0.46875V40.0032ZM31.9469 18.9094C32.8825 19.1265 33.7328 19.6159 34.3906 20.3157C34.7528 20.6927 35.0676 21.1125 35.3281 21.5657C35.3281 21.6157 33.6406 22.7563 32.6125 23.3938C32.575 23.4188 32.425 23.2563 32.2594 23.0094C32.0717 22.6856 31.805 22.4145 31.4842 22.2216C31.1635 22.0287 30.799 21.9202 30.425 21.9063C29.2406 21.825 28.4781 22.4469 28.4844 23.4688C28.4746 23.7232 28.5328 23.9756 28.6531 24.2C28.9125 24.7407 29.3969 25.0625 30.9156 25.7188C33.7125 26.9219 34.9094 27.7157 35.6531 28.8438C36.4844 30.0938 36.6688 32.1125 36.1063 33.6063C35.4813 35.2313 33.95 36.3344 31.7844 36.7C30.7953 36.8133 29.7959 36.8028 28.8094 36.6688C27.2974 36.4196 25.9046 35.6936 24.8344 34.5969C24.475 34.2 23.775 33.1657 23.8188 33.0907C23.9328 33.006 24.0529 32.9297 24.1781 32.8625L25.625 32.0625L26.7469 31.4125L26.9812 31.7594C27.3768 32.3252 27.8802 32.8074 28.4625 33.1782C29.7125 33.8344 31.4187 33.7438 32.2625 32.9844C32.5458 32.7062 32.7225 32.3374 32.7619 31.9422C32.8013 31.5471 32.7009 31.1506 32.4781 30.8219C32.1656 30.3875 31.5406 30.0219 29.7937 29.2594C27.7781 28.3907 26.9094 27.8532 26.1156 26.9969C25.6201 26.4319 25.2543 25.7652 25.0438 25.0438C24.8867 24.2196 24.8635 23.3754 24.975 22.5438C25.3906 20.5969 26.85 19.2375 28.9812 18.8344C29.9683 18.7123 30.968 18.7397 31.9469 18.9157V18.9094ZM22.7781 20.5469V22.1469H17.7062V36.5938H14.1094V22.1438H9.025V20.5813C9.00916 20.0425 9.02168 19.5032 9.0625 18.9657C9.0875 18.9375 12.1875 18.9375 15.9375 18.9375H22.7594L22.7781 20.5469Z" fill="white"/>
</g>
<defs>
<clipPath id="clip0_72_44">
<rect width="40" height="40" fill="white" transform="translate(0 0.5)"/>
</clipPath>
</defs>
</svg>
